<?xml version="1.0" encoding="UTF-8"?>
<svg xmlns="http://www.w3.org/2000/svg" width="1000" height="450" version="1.1" viewBox="0 0 1000 450">
  <!-- Generator: Adobe Illustrator 29.0.1, SVG Export Plug-In . SVG Version: 2.1.0 Build 192)  -->
  <g id="FILL-BACKGROUND">
    <rect x="0" width="1000" height="450" fill="#fff"/>
  </g>
  <g id="N-TEXT">
    <g id="MTEXT">
      <g>
        <path d="M306.902,358.946v17.455h-3.188l-7.594-10.986h-.128v10.986h-3.69v-17.455h3.239l7.534,10.978h.154v-10.978h3.673Z" fill="#f368e0"/>
        <path d="M311.708,361.623c-.54,0-1.003-.179-1.389-.537-.387-.358-.58-.79-.58-1.295s.193-.939.58-1.3c.386-.361.847-.541,1.381-.541.545,0,1.01.179,1.393.537.384.358.576.79.576,1.295s-.192.939-.576,1.299c-.383.361-.845.542-1.385.542ZM309.876,376.401v-13.091h3.631v13.091h-3.631Z" fill="#f368e0"/>
        <path d="M327.296,367.043l-3.324.205c-.057-.284-.179-.542-.367-.771s-.433-.415-.737-.554c-.304-.139-.667-.209-1.087-.209-.562,0-1.037.118-1.423.354-.386.236-.58.55-.58.942,0,.312.125.577.375.792.25.216.679.39,1.287.52l2.369.478c1.273.261,2.222.682,2.847,1.261s.938,1.341.938,2.284c0,.858-.251,1.611-.754,2.258-.502.648-1.19,1.152-2.062,1.513s-1.876.542-3.013.542c-1.733,0-3.112-.362-4.138-1.087-1.026-.724-1.626-1.711-1.803-2.961l3.571-.188c.108.528.369.93.784,1.206.415.275.946.413,1.594.413.636,0,1.149-.124,1.538-.371s.587-.567.592-.959c-.005-.33-.145-.601-.417-.814-.273-.213-.693-.376-1.261-.49l-2.267-.452c-1.278-.256-2.229-.699-2.851-1.33-.622-.631-.933-1.435-.933-2.412,0-.841.229-1.565.686-2.173s1.102-1.077,1.935-1.406,1.808-.494,2.928-.494c1.653,0,2.956.349,3.908,1.048.952.699,1.507,1.65,1.666,2.855Z" fill="#f368e0"/>
        <path d="M340.779,367.043l-3.324.205c-.057-.284-.179-.542-.367-.771s-.433-.415-.737-.554c-.304-.139-.667-.209-1.087-.209-.562,0-1.037.118-1.423.354-.386.236-.58.55-.58.942,0,.312.125.577.375.792.25.216.679.39,1.287.52l2.369.478c1.273.261,2.222.682,2.847,1.261s.938,1.341.938,2.284c0,.858-.251,1.611-.754,2.258-.502.648-1.19,1.152-2.062,1.513s-1.876.542-3.013.542c-1.733,0-3.112-.362-4.138-1.087-1.026-.724-1.626-1.711-1.803-2.961l3.571-.188c.108.528.369.93.784,1.206.415.275.946.413,1.594.413.636,0,1.149-.124,1.538-.371s.587-.567.592-.959c-.005-.33-.145-.601-.417-.814-.273-.213-.693-.376-1.261-.49l-2.267-.452c-1.278-.256-2.229-.699-2.851-1.33-.622-.631-.933-1.435-.933-2.412,0-.841.229-1.565.686-2.173s1.102-1.077,1.935-1.406,1.808-.494,2.928-.494c1.653,0,2.956.349,3.908,1.048.952.699,1.507,1.65,1.666,2.855Z" fill="#f368e0"/>
        <path d="M347.103,376.648c-.835,0-1.58-.146-2.233-.439s-1.169-.727-1.547-1.304-.566-1.297-.566-2.161c0-.727.133-1.338.4-1.833.267-.494.631-.892,1.091-1.193.46-.301.984-.529,1.572-.682.588-.153,1.206-.261,1.854-.324.761-.08,1.375-.155,1.841-.226.466-.071.804-.177,1.014-.319.21-.142.315-.352.315-.631v-.051c0-.54-.169-.958-.507-1.253-.338-.295-.817-.443-1.436-.443-.653,0-1.173.144-1.56.431-.386.287-.642.646-.767,1.078l-3.358-.273c.17-.795.506-1.484,1.006-2.067.5-.582,1.146-1.031,1.939-1.347.792-.315,1.711-.473,2.757-.473.728,0,1.425.085,2.092.255s1.262.435,1.781.793c.52.358.931.817,1.231,1.376.301.56.452,1.229.452,2.007v8.83h-3.443v-1.815h-.103c-.21.409-.491.769-.844,1.078-.352.31-.775.551-1.27.725-.495.173-1.065.26-1.713.26ZM348.143,374.143c.534,0,1.005-.107,1.415-.32s.73-.501.963-.865c.233-.363.349-.775.349-1.236v-1.389c-.114.074-.269.141-.464.201-.196.06-.417.113-.661.162s-.489.091-.733.128-.466.07-.665.098c-.426.062-.798.162-1.117.298-.318.136-.565.319-.741.549-.176.23-.264.516-.264.857,0,.494.18.871.541,1.129.361.259.819.388,1.376.388Z" fill="#f368e0"/>
        <path d="M360.927,368.833v7.568h-3.631v-13.091h3.46v2.31h.153c.29-.761.775-1.365,1.458-1.811.682-.446,1.508-.669,2.48-.669.909,0,1.702.199,2.378.597.676.397,1.202.964,1.577,1.7s.562,1.612.562,2.629v8.335h-3.631v-7.688c.006-.801-.199-1.428-.613-1.879-.415-.452-.986-.677-1.713-.677-.489,0-.919.105-1.291.315-.372.21-.662.516-.87.917-.207.4-.314.882-.319,1.444Z" fill="#f368e0"/>
        <path d="M380.861,376.401h-3.955l6.026-17.455h4.755l6.017,17.455h-3.955l-4.372-13.466h-.136l-4.381,13.466ZM380.614,369.54h9.341v2.881h-9.341v-2.881Z" fill="#f368e0"/>
        <path d="M399.364,358.946v17.455h-3.631v-17.455h3.631Z" fill="#f368e0"/>
        <path d="M409.224,363.31v2.727h-7.884v-2.727h7.884ZM403.13,360.174h3.63v12.204c0,.335.051.596.153.78.103.185.246.314.431.388s.399.111.644.111c.17,0,.341-.016.511-.047s.301-.056.392-.073l.571,2.702c-.182.057-.438.124-.767.201-.33.077-.73.124-1.202.141-.875.034-1.641-.083-2.297-.35s-1.166-.682-1.53-1.244-.542-1.273-.537-2.131v-12.682Z" fill="#f368e0"/>
        <path d="M413.417,361.623c-.54,0-1.003-.179-1.389-.537-.387-.358-.58-.79-.58-1.295s.193-.939.58-1.3c.386-.361.847-.541,1.381-.541.545,0,1.01.179,1.393.537.384.358.576.79.576,1.295s-.192.939-.576,1.299c-.383.361-.845.542-1.385.542ZM411.585,376.401v-13.091h3.631v13.091h-3.631Z" fill="#f368e0"/>
        <path d="M418.113,376.401v-13.091h3.46v2.31h.153c.273-.767.727-1.372,1.364-1.815.636-.443,1.397-.665,2.284-.665.897,0,1.662.223,2.292.669.63.446,1.051,1.05,1.261,1.811h.136c.267-.75.751-1.351,1.453-1.803s1.533-.677,2.493-.677c1.222,0,2.214.388,2.979,1.163.764.776,1.146,1.874,1.146,3.294v8.804h-3.622v-8.088c0-.728-.193-1.273-.58-1.637-.387-.363-.87-.545-1.449-.545-.659,0-1.173.209-1.542.626s-.554.967-.554,1.649v7.994h-3.52v-8.165c0-.642-.183-1.154-.55-1.534-.366-.381-.848-.571-1.444-.571-.404,0-.766.101-1.087.303s-.575.483-.763.844-.281.783-.281,1.266v7.858h-3.631Z" fill="#f368e0"/>
        <path d="M443.732,376.648c-.835,0-1.58-.146-2.233-.439s-1.169-.727-1.547-1.304-.566-1.297-.566-2.161c0-.727.133-1.338.4-1.833.267-.494.631-.892,1.091-1.193.46-.301.984-.529,1.572-.682.588-.153,1.206-.261,1.854-.324.761-.08,1.375-.155,1.841-.226.466-.071.804-.177,1.014-.319.21-.142.315-.352.315-.631v-.051c0-.54-.169-.958-.507-1.253-.338-.295-.817-.443-1.436-.443-.653,0-1.173.144-1.56.431-.386.287-.642.646-.767,1.078l-3.358-.273c.17-.795.506-1.484,1.006-2.067.5-.582,1.146-1.031,1.939-1.347.792-.315,1.711-.473,2.757-.473.728,0,1.425.085,2.092.255s1.262.435,1.781.793c.52.358.931.817,1.231,1.376.301.56.452,1.229.452,2.007v8.83h-3.443v-1.815h-.103c-.21.409-.491.769-.844,1.078-.352.31-.775.551-1.27.725-.495.173-1.065.26-1.713.26ZM444.772,374.143c.534,0,1.005-.107,1.415-.32s.73-.501.963-.865c.233-.363.349-.775.349-1.236v-1.389c-.114.074-.269.141-.464.201-.196.06-.417.113-.661.162s-.489.091-.733.128-.466.07-.665.098c-.426.062-.798.162-1.117.298-.318.136-.565.319-.741.549-.176.23-.264.516-.264.857,0,.494.18.871.541,1.129.361.259.819.388,1.376.388Z" fill="#f368e0"/>
        <path d="M460.292,369.404c0-2.114.283-4.06.848-5.838.565-1.778,1.43-3.426,2.595-4.943h3.469c-.443.562-.855,1.249-1.236,2.058-.381.81-.713,1.698-.997,2.664-.284.966-.506,1.964-.665,2.996s-.239,2.053-.239,3.064c0,1.347.138,2.706.414,4.078.275,1.372.65,2.646,1.125,3.822.474,1.176,1.007,2.139,1.598,2.889h-3.469c-1.165-1.517-2.03-3.165-2.595-4.943-.565-1.778-.848-3.728-.848-5.847Z" fill="#f368e0"/>
        <path d="M469.377,376.401v-17.455h3.69v14.412h7.483v3.042h-11.173Z" fill="#f368e0"/>
        <path d="M489.345,376.64c-1.273,0-2.405-.22-3.396-.661-.992-.44-1.773-1.048-2.344-1.824-.571-.776-.865-1.672-.882-2.689h3.716c.022.426.163.8.422,1.121.258.321.604.57,1.035.746.432.176.917.264,1.458.264.562,0,1.06-.099,1.492-.298.432-.199.77-.475,1.014-.827.244-.352.366-.758.366-1.219,0-.466-.129-.879-.388-1.24-.259-.361-.628-.644-1.108-.848-.48-.205-1.05-.307-1.709-.307h-1.628v-2.71h1.628c.557,0,1.05-.097,1.479-.29.429-.193.763-.462,1.001-.806.238-.344.358-.746.358-1.206,0-.437-.104-.822-.311-1.155-.208-.332-.498-.592-.87-.78s-.805-.281-1.3-.281c-.5,0-.958.09-1.372.269-.415.179-.747.434-.997.763-.25.33-.383.716-.4,1.159h-3.537c.017-1.006.304-1.892.861-2.659.557-.767,1.308-1.368,2.254-1.802.946-.435,2.016-.652,3.208-.652,1.205,0,2.259.219,3.162.656.903.438,1.606,1.027,2.109,1.769.503.742.751,1.573.746,2.493.006.977-.297,1.792-.908,2.446s-1.405,1.068-2.382,1.244v.137c1.284.165,2.263.609,2.936,1.333.673.725,1.007,1.629,1.001,2.715.005.994-.28,1.878-.856,2.65-.577.773-1.371,1.381-2.382,1.824-1.011.443-2.17.665-3.477.665Z" fill="#f368e0"/>
        <path d="M498.456,373.333v-2.906l7.287-11.48h2.506v4.023h-1.483l-4.594,7.27v.137h10.355v2.957h-14.071ZM506.833,376.401v-3.955l.068-1.287v-12.213h3.46v17.455h-3.528Z" fill="#f368e0"/>
        <path d="M528.745,367.793v2.881h-7.96v-2.881h7.96Z" fill="#f368e0"/>
        <path d="M544.069,376.64c-.898-.006-1.763-.156-2.595-.452-.833-.295-1.578-.776-2.237-1.44-.659-.665-1.18-1.545-1.564-2.642-.383-1.097-.575-2.443-.575-4.04.005-1.466.175-2.777.507-3.933.333-1.156.81-2.138,1.432-2.944.622-.807,1.368-1.422,2.237-1.845.869-.423,1.844-.635,2.923-.635,1.165,0,2.193.226,3.085.678s1.609,1.064,2.152,1.836c.542.773.871,1.64.984,2.6h-3.639c-.142-.608-.44-1.085-.895-1.432-.455-.347-1.018-.52-1.688-.52-1.137,0-1.999.494-2.587,1.483s-.888,2.333-.899,4.031h.119c.261-.517.615-.959,1.061-1.325.446-.367.955-.648,1.525-.844.571-.196,1.175-.294,1.812-.294,1.034,0,1.954.243,2.761.729.807.486,1.443,1.152,1.909,1.999.466.847.699,1.815.699,2.906,0,1.182-.274,2.233-.822,3.153-.549.92-1.312,1.641-2.293,2.161-.98.52-2.118.777-3.413.771ZM544.052,373.742c.568,0,1.077-.136,1.525-.409.449-.272.801-.642,1.057-1.108.255-.466.383-.988.383-1.568s-.126-1.1-.379-1.56c-.253-.46-.601-.827-1.044-1.099-.443-.273-.949-.409-1.517-.409-.426,0-.819.08-1.18.239s-.676.38-.946.665-.481.612-.635.984-.23.769-.23,1.189c0,.562.129,1.077.388,1.542.258.466.611.838,1.057,1.117.446.278.953.417,1.521.417Z" fill="#f368e0"/>
        <path d="M560.211,363.31v2.727h-7.884v-2.727h7.884ZM554.118,360.174h3.63v12.204c0,.335.051.596.153.78.103.185.246.314.431.388s.399.111.644.111c.17,0,.341-.016.511-.047s.301-.056.392-.073l.571,2.702c-.182.057-.438.124-.767.201-.33.077-.73.124-1.202.141-.875.034-1.641-.083-2.297-.35s-1.166-.682-1.53-1.244-.542-1.273-.537-2.131v-12.682Z" fill="#f368e0"/>
        <path d="M566.475,368.833v7.568h-3.631v-17.455h3.528v6.673h.154c.295-.772.772-1.379,1.432-1.82.659-.44,1.486-.66,2.48-.66.909,0,1.703.197,2.382.592.679.395,1.207.96,1.585,1.696s.564,1.615.559,2.638v8.335h-3.631v-7.688c.005-.807-.197-1.435-.609-1.883-.412-.449-.987-.673-1.726-.673-.494,0-.93.105-1.308.315-.378.21-.673.516-.886.917-.213.4-.323.882-.328,1.444Z" fill="#f368e0"/>
        <path d="M595.034,364.588c-.119-.415-.287-.783-.503-1.104-.216-.321-.479-.594-.788-.818-.31-.225-.662-.396-1.057-.516-.395-.119-.831-.179-1.308-.179-.892,0-1.675.222-2.348.665-.673.443-1.197,1.086-1.572,1.93s-.562,1.874-.562,3.09.185,2.25.554,3.102c.369.853.892,1.501,1.568,1.947.676.446,1.475.669,2.395.669.835,0,1.55-.149,2.144-.448s1.048-.72,1.364-1.266c.315-.545.473-1.19.473-1.935l.75.111h-4.5v-2.778h7.304v2.199c0,1.534-.324,2.851-.972,3.95-.648,1.1-1.54,1.946-2.676,2.54s-2.438.891-3.903.891c-1.636,0-3.074-.362-4.312-1.087-1.239-.724-2.203-1.755-2.894-3.094-.69-1.338-1.035-2.927-1.035-4.769,0-1.415.206-2.677.618-3.788s.99-2.053,1.734-2.825c.744-.773,1.611-1.361,2.6-1.764.988-.403,2.06-.605,3.213-.605.989,0,1.909.144,2.761.431.853.287,1.609.692,2.271,1.214.662.523,1.203,1.144,1.624,1.862s.69,1.51.81,2.374h-3.75Z" fill="#f368e0"/>
        <path d="M607.614,376.657c-1.346,0-2.504-.274-3.473-.823s-1.715-1.327-2.237-2.335c-.523-1.009-.784-2.203-.784-3.584,0-1.347.261-2.528.784-3.545.522-1.017,1.26-1.81,2.211-2.378.952-.568,2.07-.852,3.354-.852.863,0,1.669.138,2.416.413.747.276,1.4.689,1.96,1.24.56.551.996,1.243,1.308,2.075.312.833.469,1.806.469,2.919v.997h-11.054v-2.25h7.637c0-.522-.114-.985-.341-1.389-.227-.403-.541-.72-.941-.95-.401-.23-.865-.345-1.394-.345-.551,0-1.039.126-1.462.379s-.754.591-.993,1.014-.361.894-.367,1.411v2.139c0,.647.121,1.208.362,1.679.242.472.584.835,1.027,1.091.443.255.968.383,1.577.383.403,0,.772-.057,1.108-.17.335-.114.622-.284.861-.511.238-.228.42-.506.545-.835l3.358.222c-.17.807-.519,1.51-1.044,2.109-.526.6-1.202,1.065-2.029,1.398-.827.332-1.78.499-2.859.499Z" fill="#f368e0"/>
        <path d="M619.623,368.833v7.568h-3.631v-13.091h3.46v2.31h.153c.29-.761.775-1.365,1.458-1.811.682-.446,1.508-.669,2.48-.669.909,0,1.702.199,2.378.597.676.397,1.202.964,1.577,1.7s.562,1.612.562,2.629v8.335h-3.631v-7.688c.006-.801-.199-1.428-.613-1.879-.415-.452-.986-.677-1.713-.677-.489,0-.919.105-1.291.315-.372.21-.662.516-.87.917-.207.4-.314.882-.319,1.444Z" fill="#f368e0"/>
        <path d="M637.034,369.404c0,2.119-.283,4.068-.848,5.847s-1.431,3.426-2.595,4.943h-3.469c.443-.562.855-1.25,1.236-2.062.38-.812.713-1.7.997-2.663.284-.963.506-1.962.665-2.996.159-1.034.238-2.057.238-3.068,0-1.347-.138-2.706-.413-4.078-.276-1.372-.651-2.645-1.125-3.818-.475-1.173-1.007-2.135-1.598-2.885h3.469c1.165,1.517,2.03,3.165,2.595,4.943.565,1.779.848,3.725.848,5.838Z" fill="#f368e0"/>
      </g>
    </g>
  </g>
  <g id="_x32_D_x24_AG-DIAGRAM">
    <g id="POLYLINE">
      <g>
        <line x1="54.774" y1="311.896" x2="56.774" y2="311.896" fill="none" stroke="#f368e0" stroke-linecap="round" stroke-linejoin="round" stroke-width="3.25"/>
        <line x1="63.746" y1="311.896" x2="947.744" y2="311.896" fill="none" stroke="#f368e0" stroke-dasharray="3.984 6.972" stroke-linecap="round" stroke-linejoin="round" stroke-width="3.25"/>
        <line x1="951.23" y1="311.896" x2="953.23" y2="311.896" fill="none" stroke="#f368e0" stroke-linecap="round" stroke-linejoin="round" stroke-width="3.25"/>
      </g>
    </g>
  </g>
  <g id="_x32_D_x24_AG-DETAILS-DIAGRAM">
    <g id="POLYLINE1" data-name="POLYLINE">
      <g>
        <path d="M938.483,289.006c-.01-.5.028-1.024.049-1.5.135-.109.262-.239.333-.4.058-.14.068-.295.061-.445-.006-.172-.043-.345-.094-.514" fill="none" stroke="#f368e0" stroke-linecap="round" stroke-linejoin="round" stroke-width="2.5"/>
        <path d="M938.231,281.274c-.01-.033-.019-.067-.026-.101-.038-.165-.041-.336-.022-.503.095-.743.438-1.472.566-2.209.064-.341.057-.694-.019-1.032-.127-.562-.377-1.131-.496-1.695-.201-.926-.235-1.898-.255-2.843.009-4.239.231-9.114-.047-13.334-.063-1.305-.286-3.039-.452-4.343-.052-.456-.097-.955-.106-1.415-.032-1.147.242-2.407.14-3.553-.055-.689-.28-1.354-.533-1.993l-.561-1.368c-.298-.733-.489-1.514-.611-2.295-.133-.872-.318-2.239-.522-3.082-.292-1.28-.679-2.56-1.14-3.789-.244-.671-.674-1.572-.792-2.267-.041-.353.026-.785.066-1.14.106-.776.28-1.761.279-2.539.004-.473-.058-.952-.14-1.417l-.337-1.739-.118-.678c-.178-1.278-.541-3.025-.535-4.303-.007-2.381.773-8.67.985-11.122.332-3.735.446-7.622.417-11.372-.038-3.936-.235-7.987-.853-11.877-.285-1.774-.946-5.394-1.125-7.134-.159-1.428-.236-3.398-.718-4.747-.195-.581-.477-1.366-.624-1.953-.178-.686-.317-1.43-.435-2.13l-.643-4.216c-.204-1.25-.446-2.516-.717-3.776" fill="none" stroke="#f368e0" stroke-dasharray="2.997 4.995" stroke-linecap="round" stroke-linejoin="round" stroke-width="2.5"/>
        <path d="M928.297,162.879c-.119-.488-.242-.974-.368-1.454.274-.062.525-.204.749-.37.176-.132.338-.282.489-.443" fill="none" stroke="#f368e0" stroke-linecap="round" stroke-linejoin="round" stroke-width="2.5"/>
        <path d="M929.694,155.262c-.189-.267-.393-.524-.579-.773-.381-.503-.74-1.037-.992-1.617-.46-1.061-.685-2.22-.866-3.357-.005-.034-.01-.069-.015-.104" fill="none" stroke="#f368e0" stroke-dasharray="3.52 5.867" stroke-linecap="round" stroke-linejoin="round" stroke-width="2.5"/>
        <path d="M926.859,146.495c-.069-.559-.13-1.083-.172-1.494.468-.06.973-.122,1.49-.178" fill="none" stroke="#f368e0" stroke-linecap="round" stroke-linejoin="round" stroke-width="2.5"/>
        <path d="M933.11,144.611c.267.002.527-.003.767-.022.385-.03.775-.095,1.128-.256.24-.108.456-.267.633-.46.281-.305.478-.68.631-1.063.244-.62.386-1.284.5-1.939.402-2.49.519-5.06.413-7.579-.115-3.828-1.268-7.874-2.076-11.605-.883-4.144-1.582-9.136-2.203-13.351-.15-.931-.326-1.92-.568-2.831-.271-1.018-.639-2.032-1.236-2.908" fill="none" stroke="#f368e0" stroke-dasharray="2.965 4.941" stroke-linecap="round" stroke-linejoin="round" stroke-width="2.5"/>
        <path d="M929.427,100.787c-.383-.323-.786-.624-1.193-.91.275-.401.597-.79.928-1.178" fill="none" stroke="#f368e0" stroke-linecap="round" stroke-linejoin="round" stroke-width="2.5"/>
        <path d="M931.613,94.48c.078-.381.122-.768.13-1.157.029-1.088-.213-2.17-.588-3.187-.572-1.521-1.39-2.969-2.451-4.203-.25-.287-.533-.561-.818-.813-.328-.296-.72-.605-.986-.954-.249-.313-.387-.696-.455-1.086-.165-.961-.119-2.005-.342-2.957-.252-1.107-.88-2.097-1.628-2.937-.264-.302-.601-.609-.899-.88-.225-.207-.437-.435-.592-.699-.452-.789-.749-2.233-1.023-3.118-.422-1.484-1.015-2.938-1.743-4.298-.916-1.721-2.017-3.367-3.251-4.876-1.086-1.32-2.299-2.573-3.661-3.61-.824-.623-1.717-1.178-2.686-1.546-.661-.248-1.366-.407-2.075-.388-.81.019-1.588.304-2.317.636-.691.305-1.531.796-2.273.914-.495.077-1.02-.033-1.514-.08-.492-.051-.992.007-1.458.173-.695.241-1.337.621-1.93,1.052-.625.462-1.206.996-1.687,1.608-.595.732-.953,1.686-1.285,2.562-.271.708-.595,1.41-1.05,2.02-1.297,1.708-3.139,3.097-4.256,4.946-.26.429-.48.888-.625,1.369-.169.556-.242,1.141-.259,1.721-.071,2.113.624,4.308.345,6.419-.19,1.343-.834,2.574-1.53,3.721-1.025,1.642-2.168,3.398-2.773,5.243-.302.901-.505,1.851-.483,2.804" fill="none" stroke="#f368e0" stroke-dasharray="2.964 4.941" stroke-linecap="round" stroke-linejoin="round" stroke-width="2.5"/>
        <path d="M886.01,95.27c.015.038.031.075.046.113.051.119.506,1.181.539,1.268-.491.079-.982.192-1.461.345" fill="none" stroke="#f368e0" stroke-linecap="round" stroke-linejoin="round" stroke-width="2.5"/>
        <path d="M881.478,99.69c-.686,1.055-1.104,2.274-1.404,3.491-.621,2.606-.768,5.386-.895,8.058-.148,6.255-.525,14.013-.311,20.244.063,1.484.154,3.014.41,4.477.177.96.412,1.938.909,2.788.247.42.583.789.988,1.059.315.212.659.37,1.017.496" fill="none" stroke="#f368e0" stroke-dasharray="2.781 4.636" stroke-linecap="round" stroke-linejoin="round" stroke-width="2.5"/>
        <path d="M884.438,140.875c.508.109,1.024.214,1.475.299-.083.488-.168.982-.264,1.475" fill="none" stroke="#f368e0" stroke-linecap="round" stroke-linejoin="round" stroke-width="2.5"/>
        <path d="M884.107,147.303c-.08.151-.163.301-.248.448l-1.305,2.203c-.49.854-.949,1.749-1.255,2.686-.253.772-.408,1.58-.48,2.388-.085.985-.051,1.988.139,2.959.12.597.299,1.192.587,1.731" fill="none" stroke="#f368e0" stroke-dasharray="2.952 4.919" stroke-linecap="round" stroke-linejoin="round" stroke-width="2.5"/>
        <path d="M883.434,161.108c.502.005.985-.183,1.443-.371-.076.491-.154.986-.237,1.481" fill="none" stroke="#f368e0" stroke-linecap="round" stroke-linejoin="round" stroke-width="2.5"/>
        <path d="M883.672,167.131c-.155.657-.321,1.309-.5,1.951-.401,1.377-1.02,3.335-1.305,4.707-.344,1.597-.623,3.613-1.031,5.189-.382,1.446-1.034,2.882-1.211,4.388-.479,5.224-1.634,22.943-1.867,28.003-.11,2.414-.072,5.119.073,7.536.034.865.027,1.754-.156,2.604-.124.605-.305,1.372-.352,1.981-.056.616-.026,1.26.014,1.877.061.949.247,2.527.177,3.462-.03.51-.185,1.07-.315,1.565-.146.536-.13,1.146-.167,1.698-.011.113-.023.23-.067.335-.012.028-.027.055-.047.077-.214.25-.376.546-.527.837-.55,1.105-.948,2.318-1.313,3.496-.837,2.769-1.442,5.704-1.96,8.549-.584,3.285-1.123,6.989-1.493,10.303-.3,2.625-.472,5.359-.439,8,.031,3.365.39,9.739.082,13.009-.045.426-.12.856-.235,1.269-.083.313-.212.663-.252.984-.026.196-.012.397.016.592.066.436.189.935.21,1.375.059,1.021-.365,2.049-.468,3.055-.074.582.071,1.174.208,1.736.064.283.142.571.297.819-.078.626-.394,1.289-.615,1.878-.266.687-.425,1.423-.538,2.151-.145,1.004-.313,2.108-.601,3.072-.305,1.039-.738,2.077-1.18,3.066-.985,2.253-2.407,4.625-3.407,6.854-.241.572-.45,1.169-.567,1.78-.222,1.133-.113,2.306.12,3.429.154.761.385,1.56.96,2.115.388.383.906.597,1.427.727,1.084.266,2.24.281,3.352.295.37-.002,5.621.009,5.812-.008.219-.01.445-.028.66-.072.278-.055.554-.157.778-.333.418-.323.586-.854.685-1.353.341-1.962-.017-4.122-.007-6.1-.011-1.065.196-2.373.318-3.434.132-.991.097-2.399.12-3.406.029-.854.051-1.74.346-2.551.156-.432.483-.823.75-1.193.205-.286.374-.605.456-.95.164-.723.076-1.482.012-2.212-.118-1.188-.374-2.664-.268-3.851.23-.214.42-.474.584-.741.246-.398.45-.83.609-1.271.609-1.685.614-3.529.394-5.289-.039-.421-.049-.851.029-1.268.094-.509.307-.996.521-1.465.573-1.187,1.26-2.578,1.642-3.83,1.326-4.132,1.924-9.504,3.026-13.703.21-.786.461-1.58.8-2.322.257-.583.616-1.226.737-1.845.101-.504.082-1.144.129-1.657.035-.423.117-.847.221-1.258.412-1.642,1.388-3.819,1.975-5.42,1.022-2.816,1.885-5.862,2.62-8.768.057-.277.105-.571.028-.849-.051-.193-.18-.367-.196-.569-.013-.138.061-.262.124-.378.316-.53.743-1.029.911-1.633.096-.332.121-.683.129-1.028.01-.664-.041-1.495.05-2.152.109-.921.594-1.851.971-2.689.185-.416.368-.852.454-1.3.17-.821-.092-1.686.005-2.504.088-.67.47-1.389.706-2.015.293-.737.462-1.529.604-2.308.307-1.789.632-3.978,1.166-5.691.713-2.414,2.062-5.499,2.965-7.87.911-2.32,1.779-5.709,2.564-8.09.221-.64.472-1.289.787-1.888.35-.655.778-1.295,1.368-1.757.257-.195.563-.357.893-.351.253.002.507.103.686.283.135.135.224.31.293.486.252.745.632,1.864.831,2.618.137.519.223,1.06.271,1.595.077.89.139,2.053.353,2.913.246,1.098,1.007,2.951,1.395,4.026.753,2.011,1.106,4.255,1.683,6.319.323,1.186.941,2.413,1.303,3.588.477,1.532.477,3.319.807,4.883.173.914.646,1.859,1.043,2.698.232.498.439,1.023.598,1.549.303,1.01.521,2.06.544,3.117.012.435-.06.909-.116,1.341-.038.302-.055.616.043.909.178.518.445.943.575,1.521.269,1.188.204,2.812.249,4.034.012.31.028.632.077.938.032.224.106.479.145.703.022.13,0,.211-.042.332-.026.079-.034.166-.01.247.086.269.465.694.633.936.288.39.554.807.715,1.266.281.778.336,1.744.452,2.56.066.497.18.993.393,1.448.229.511.547,1.024.682,1.572.167.676.101,1.529.11,2.224.004.565.039,1.142.169,1.693.191.845.635,1.858.948,2.671.241.638.47,1.302.517,1.987.062.739-.086,1.577-.066,2.317.008.423.109.841.278,1.228.258.612.678,1.256.893,1.885.151.437.204.905.232,1.365l.05.995c.047,1.066.326,2.115.642,3.129.341,1.065.997,3.018,1.264,4.065.409,1.533.865,3.651,1.344,5.153.399,1.297,1.058,2.656,1.35,3.984.13.588.163,1.2.07,1.796-.128.904-.47,1.832-.51,2.748-.021.427.044.857.176,1.263.344,1.045,1.035,1.963,1.883,2.656.191,1.255-.093,2.6-.301,3.839-.101.624-.189,1.27-.083,1.899.176,1.048.969,1.867,1.339,2.839.199.515.187,1.081.125,1.621l-.128,1.019c-.067.564-.064,1.139.003,1.703.114,1.098.59,3.014.821,4.113.139.617.495,2.639.615,3.288.171.852.35,1.727.702,2.525.165.366.38.724.699.977.581.467,1.368.496,2.082.508,1.246-.015,7.208.041,8.322-.034.339-.026.684-.069,1.01-.17.282-.087.556-.227.76-.445.191-.2.309-.459.379-.725.182-.731.099-1.502-.032-2.235-.42-2.118-1.401-4.091-2.44-5.968-.755-1.327-1.757-2.92-2.334-4.321-.572-1.329-.971-3.268-1.326-4.681-.107-.414-.236-.866-.377-1.268l-.223-.615" fill="none" stroke="#f368e0" stroke-dasharray="3.005 5.008" stroke-linecap="round" stroke-linejoin="round" stroke-width="2.5"/>
      </g>
    </g>
  </g>
  <g id="_x32_D_x24_AG-DETAILS">
    <g id="POLYLINE2" data-name="POLYLINE">
      <path d="M284.857,166.729c41.132,2.364,95.532,8.662,136.71,13.855" fill="none" stroke="#f368e0" stroke-linecap="round" stroke-linejoin="round" stroke-width="2"/>
    </g>
    <g id="POLYLINE3" data-name="POLYLINE">
      <path d="M159.235,161.285c26.639.794,81.287,2.892,107.642,4.36" fill="none" stroke="#f368e0" stroke-linecap="round" stroke-linejoin="round" stroke-width="2"/>
    </g>
    <g id="POLYLINE4" data-name="POLYLINE">
      <path d="M460.363,185.752c30.943,4.291,95.854,14.155,127.027,19.081" fill="none" stroke="#f368e0" stroke-linecap="round" stroke-linejoin="round" stroke-width="2"/>
    </g>
    <g id="POLYLINE5" data-name="POLYLINE">
      <path d="M626.721,163.847c32.262,1.38,64.67,5.909,96.219,12.725,12.014,2.644,24.407,5.716,36.124,9.465,4.661,1.541,9.534,3.174,13.929,5.371" fill="none" stroke="#f368e0" stroke-linecap="round" stroke-linejoin="round" stroke-width="2"/>
    </g>
    <g id="POLYLINE6" data-name="POLYLINE">
      <path d="M759.993,209.62c1.88.444,3.92.942,5.828,1.223.381.052.775.097,1.159.101.26-.003.556-.007.785-.144l.008-.005.008-.005.007-.005.007-.005.007-.005.007-.005.007-.005.007-.006.006-.006.006-.006.006-.006.006-.006.006-.006.006-.006.005-.006.005-.006.005-.006.005-.006.005-.006.005-.006.005-.006.004-.006.004-.007.004-.007.004-.007c.089-.157.091-.347.102-.523.008-.25-.013-.509-.04-.758-.103-.972-.602-3.727-.764-4.729" fill="none" stroke="#f368e0" stroke-linecap="round" stroke-linejoin="round" stroke-width="2"/>
    </g>
    <g id="POLYLINE7" data-name="POLYLINE">
      <line x1="735.607" y1="196.929" x2="751.781" y2="208.625" fill="none" stroke="#f368e0" stroke-linecap="round" stroke-linejoin="round" stroke-width="2"/>
    </g>
    <g id="POLYLINE8" data-name="POLYLINE">
      <path d="M793.503,204.975c.449.551,7.589,9.196,7.794,9.494.269.349.577.74.807,1.113.101.164.193.338.256.521.048.141.076.292.056.441-.027.21-.154.391-.3.539-.16.161-.348.298-.537.424-.499.329-1.077.628-1.607.906" fill="none" stroke="#f368e0" stroke-linecap="round" stroke-linejoin="round" stroke-width="2"/>
    </g>
    <g id="POLYLINE9" data-name="POLYLINE">
      <path d="M725.072,191.123c13.216,2.84,32.581,6.715,45.406,10.292,3.189.901,6.533,1.925,9.616,3.131,1.247.503,2.483,1.099,3.553,1.922,2.422,1.859,3.83,4.689,5.127,7.382" fill="none" stroke="#f368e0" stroke-linecap="round" stroke-linejoin="round" stroke-width="2"/>
    </g>
    <g id="POLYLINE10" data-name="POLYLINE">
      <path d="M59.172,225.336c14.831.586,29.791,2.287,44.315,5.376,15.045,3.18,29.912,7.905,44.161,13.671" fill="none" stroke="#f368e0" stroke-linecap="round" stroke-linejoin="round" stroke-width="2"/>
    </g>
    <g id="POLYLINE11" data-name="POLYLINE">
      <path d="M75.723,176.508c15.31-.962,31.155-2.324,46.198-5.277,5.497-1.128,13.555-2.668,18.913-4.058.841-.226,1.768-.475,2.586-.77.706-.256,1.406-.583,1.963-1.096.667-.609,1.096-1.43,1.468-2.241" fill="none" stroke="#f368e0" stroke-linecap="round" stroke-linejoin="round" stroke-width="2"/>
    </g>
    <g id="POLYLINE12" data-name="POLYLINE">
      <path d="M180.401,227.18c-10.685-1.705-31.439-4.119-41.655-6.774-1.747-.497-3.517-1.076-5.087-2.005-.877-.521-1.676-1.182-2.329-1.966-.696-.828-1.247-1.781-1.731-2.746-3.081-6.57-6.207-15.442-8.785-22.271" fill="none" stroke="#f368e0" stroke-linecap="round" stroke-linejoin="round" stroke-width="2"/>
    </g>
    <g id="POLYLINE13" data-name="POLYLINE">
      <line x1="155.223" y1="150.422" x2="262.936" y2="152.066" fill="none" stroke="#f368e0" stroke-linecap="round" stroke-linejoin="round" stroke-width="2"/>
    </g>
    <g id="POLYLINE14" data-name="POLYLINE">
      <path d="M298.346,265.423c15.076-3.312,30.623-6.504,46.036-7.53,4.163-.286,8.911-.398,13.103-.411,38.574.027,134.778,5.867,172.938,4.849,3.5-.18,7.182-.299,10.595-1.147,1.353-.35,2.672-.889,3.835-1.669.946-.626,1.804-1.399,2.604-2.2.721-.71,1.46-1.553,2.137-2.3,8.443-9.764,26.062-29.725,34.714-39.198" fill="none" stroke="#f368e0" stroke-linecap="round" stroke-linejoin="round" stroke-width="2"/>
    </g>
    <g id="POLYLINE15" data-name="POLYLINE">
      <path d="M711.134,219.003c4.245-2.602,14.947-8.931,18.915-11.633" fill="none" stroke="#f368e0" stroke-linecap="round" stroke-linejoin="round" stroke-width="2"/>
    </g>
    <g id="POLYLINE16" data-name="POLYLINE">
      <line x1="291.828" y1="271.042" x2="607.857" y2="273.399" fill="none" stroke="#f368e0" stroke-linecap="round" stroke-linejoin="round" stroke-width="2"/>
    </g>
    <g id="POLYLINE17" data-name="POLYLINE">
      <path d="M255.913,196.594c-27.962-10.923-59.902-2.606-78.986,20.559-5.903,7.151-10.369,15.536-13.011,24.425-1.718,5.627-2.631,12.493-3.641,18.295" fill="none" stroke="#f368e0" stroke-linecap="round" stroke-linejoin="round" stroke-width="2"/>
    </g>
    <g id="POLYLINE18" data-name="POLYLINE">
      <path d="M736.917,251.969c-4.972-34.749-35.264-60.212-70.342-59.145-35.085,1.098-63.742,28.376-66.567,63.364" fill="none" stroke="#f368e0" stroke-linecap="round" stroke-linejoin="round" stroke-width="2"/>
    </g>
    <g id="POLYLINE19" data-name="POLYLINE">
      <line x1="100.519" y1="176.846" x2="103.206" y2="185.868" fill="none" stroke="#f368e0" stroke-linecap="round" stroke-linejoin="round" stroke-width="2"/>
    </g>
  </g>
  <g id="_x32_D_x24_AG-TRANSPORT">
    <g id="POLYLINE20" data-name="POLYLINE">
      <path d="M272.757,95.791c-.002-.929-.003-1.958.077-2.881.037-.415.087-.837.197-1.24.078-.279.19-.561.398-.77.188-.192.447-.287.7-.36.738-.208,1.52-.216,2.281-.197,2.169.103,4.363.389,6.472.91,1.779.463,3.569,1.132,4.982,2.341" fill="none" stroke="#f368e0" stroke-linecap="round" stroke-linejoin="round" stroke-width="2.75"/>
    </g>
    <g id="POLYLINE21" data-name="POLYLINE">
      <path d="M488.685,106.285l11.791-1.256c1.228-.158,2.97-.346,4.166-.59.207-.044.422-.093.622-.163.177-.064.386-.163.493-.323l.003-.005.003-.005.003-.005.003-.005.003-.005.002-.005.002-.005.002-.005.002-.005.002-.005.002-.005.002-.005.002-.005.002-.005v-.005s.003-.005.003-.005v-.005s.002-.005.002-.005v-.005s.002-.005.002-.005v-.005s.001-.005.001-.005v-.005s0-.005,0-.005v-.005s0-.005,0-.005v-.006s0-.006,0-.006v-.006s0-.006,0-.006v-.006s-.001-.006-.001-.006v-.006s-.002-.006-.002-.006v-.006s-.002-.006-.002-.006v-.006s-.003-.006-.003-.006l-.002-.006-.002-.006-.002-.006-.002-.006-.002-.006-.002-.006-.002-.006c-.038-.087-.102-.159-.17-.224-.149-.139-.323-.254-.497-.36-.748-.441-1.61-.819-2.408-1.167-1.804-.782-3.781-1.52-5.642-2.162-10.742-3.655-22.273-5.733-33.45-7.607-11.516-1.856-23.779-3.42-35.414-4.302-13.44-1.011-28.072-1.288-41.558-1.237-23.86.132-48.794,1.299-72.53,3.784-17.362,1.876-36.783,4.365-53.959,7.491,0,0-1.18.239-1.18.239,0,0-1.026.223-1.026.223,0,0-.459.106-.459.106,0,0-.425.102-.425.102l-.392.099s-.361.096-.361.096c0,0-.331.093-.331.093,0,0-.303.09-.303.09l-.141.044-.135.044-.128.043s-.122.043-.122.043c0,0-.116.042-.116.042,0,0-.111.042-.111.042,0,0-.105.041-.105.041,0,0-.1.041-.1.041l-.094.04-.089.04-.043.02s-.042.02-.042.02c0,0-.04.02-.04.02l-.039.02c-.17.087-.343.186-.493.306,0,0-.021.017-.021.017,0,0-.02.017-.02.017,0,0-.019.017-.019.017l-.01.008s-.009.008-.009.008c0,0-.009.008-.009.008-.043.041-.088.086-.123.136l-.006.009-.006.009-.006.009-.005.009-.005.009-.005.009-.005.009-.005.009-.004.009-.004.009-.004.009-.004.009-.003.009-.003.009-.003.009-.003.009-.002.01-.002.01-.002.01-.002.01v.01s-.003.01-.003.01v.01s-.002.01-.002.01v.01s0,.01,0,.01v.01s0,.01,0,.01v.01s.002.011.002.011v.011s.003.011.003.011l.002.011.002.011.002.011.003.011.003.011.003.011.003.011.004.011.004.012.004.012.005.012.005.012.005.012c.137.283.382.496.613.702.334.288.72.566,1.081.821,2.074,1.43,4.971,3.14,7.137,4.458" fill="none" stroke="#f368e0" stroke-linecap="round" stroke-linejoin="round" stroke-width="2.75"/>
    </g>
    <g id="POLYLINE22" data-name="POLYLINE">
      <path d="M256.457,169.38c-.031.394.114.783.339,1.101.262.372.617.669.994.918.581.38,1.232.654,1.892.865.733.232,1.498.387,2.261.48.24.029.508.054.748.07.208.026,17.128.951,17.326.971,2.655.144,5.41.179,8.064.032,1.791-.108,3.636-.275,5.387-.675.587-.14,1.187-.307,1.736-.563.264-.126.525-.272.734-.48l.016-.017.016-.017.015-.017.015-.017.014-.017.014-.017.013-.017.013-.017.012-.017.011-.017.011-.017.01-.017.01-.017.009-.017.009-.017.008-.017.008-.017.007-.017.007-.017.006-.017.006-.017.005-.017.005-.017.004-.017.004-.017.003-.017.003-.017.002-.017c.002-.022.006-.08.008-.102v-.017s0-.017,0-.017v-.017s-.001-.017-.001-.017v-.017s-.003-.017-.003-.017l-.002-.017-.003-.018-.003-.018-.004-.018-.005-.018-.005-.018-.006-.018-.006-.018-.007-.018-.007-.018-.008-.018-.008-.018-.009-.018-.009-.018-.01-.018-.01-.018-.011-.018-.012-.018-.012-.018-.013-.019-.013-.019-.014-.019-.014-.019c-.191-.24-.446-.42-.705-.578-.559-.335-1.183-.577-1.797-.79-1.613-.546-3.34-.901-5.017-1.192-2.615-.443-5.352-.715-8.001-.868,0,0-17.179-.962-17.179-.962,0,0-.147-.007-.147-.007-.241-.011-.512-.016-.753-.014-.823.007-1.657.085-2.463.254-.657.14-1.312.34-1.912.645-.411.211-.806.474-1.113.823-.263.296-.447.672-.46,1.072Z" fill="none" stroke="#f368e0" stroke-linecap="round" stroke-linejoin="round" stroke-width="2.75"/>
    </g>
    <g id="POLYLINE23" data-name="POLYLINE">
      <path d="M285.594,168.021c-.841-1.939-2.569-3.405-4.531-4.137-1.006-.379-2.083-.579-3.157-.597-.154.002-4.986-.093-4.981-.077-.421.009-.854.047-1.27.112-2.252.347-4.412,1.545-5.724,3.433" fill="none" stroke="#f368e0" stroke-linecap="round" stroke-linejoin="round" stroke-width="2.75"/>
    </g>
    <g id="POLYLINE24" data-name="POLYLINE">
      <path d="M265.125,172.951c.77,2.045,2.523,3.617,4.538,4.399,1.039.408,2.159.624,3.275.642.242,0,5.1.098,5.15.071.511-.02,1.032-.083,1.533-.185,2.326-.467,4.514-1.871,5.676-3.971" fill="none" stroke="#f368e0" stroke-linecap="round" stroke-linejoin="round" stroke-width="2.75"/>
    </g>
    <g id="POLYLINE25" data-name="POLYLINE">
      <path d="M449.948,181.606c-.77-1.969-2.443-3.497-4.377-4.299-.991-.415-2.061-.655-3.133-.712-.154-.004-4.979-.275-4.975-.258-.421-.006-.855.016-1.273.066-2.263.264-4.466,1.383-5.845,3.222" fill="none" stroke="#f368e0" stroke-linecap="round" stroke-linejoin="round" stroke-width="2.75"/>
    </g>
    <g id="POLYLINE26" data-name="POLYLINE">
      <path d="M429.314,185.786c.695,2.072,2.389,3.707,4.375,4.562,1.024.446,2.135.702,3.249.762.242.01,5.093.284,5.144.259.511-.002,1.034-.045,1.539-.129,2.341-.382,4.579-1.706,5.817-3.761" fill="none" stroke="#f368e0" stroke-linecap="round" stroke-linejoin="round" stroke-width="2.75"/>
    </g>
    <g id="POLYLINE27" data-name="POLYLINE">
      <path d="M420.782,181.901c-.046.393.085.786.299,1.113.248.381.592.692.96.954.567.401,1.207.699,1.859.934.724.259,1.483.442,2.242.562.239.037.505.072.745.097.207.034,17.082,1.575,17.279,1.603,2.648.241,5.4.376,8.057.326,1.793-.043,3.643-.142,5.408-.478.592-.119,1.198-.263,1.756-.499.268-.116.535-.253.751-.453l.017-.016.016-.016.016-.016.015-.016.015-.016.014-.016.014-.017.013-.017.013-.017.012-.017.011-.017.011-.017.01-.017.01-.017.009-.017.009-.017.008-.017.008-.017.007-.017.007-.017.006-.017.006-.017.005-.017.005-.017.004-.017.004-.017.003-.017.003-.017c.003-.022.009-.08.011-.102v-.017s.002-.017.002-.017v-.017s0-.017,0-.017v-.017s-.002-.017-.002-.017l-.002-.018-.002-.018-.003-.018-.003-.018-.004-.018-.004-.018-.005-.018-.005-.018-.006-.018-.006-.018-.007-.018-.008-.018-.008-.018-.009-.019-.009-.019-.01-.019-.01-.019-.011-.019-.011-.019-.012-.019-.013-.019-.013-.019-.014-.019c-.182-.246-.431-.436-.684-.604-.546-.355-1.161-.62-1.767-.855-1.592-.604-3.305-1.022-4.97-1.375-2.597-.538-5.322-.91-7.964-1.16,0,0-17.133-1.589-17.133-1.589l-.146-.013c-.24-.02-.511-.035-.751-.042-.823-.023-1.659.024-2.47.164-.662.116-1.323.292-1.934.574-.419.196-.823.444-1.143.782-.273.286-.471.655-.499,1.054Z" fill="none" stroke="#f368e0" stroke-linecap="round" stroke-linejoin="round" stroke-width="2.75"/>
    </g>
    <g id="POLYLINE28" data-name="POLYLINE">
      <path d="M506.283,113.864c-.42-.436-.891-.941-1.057-1.536l-.006-.024-.005-.024-.005-.024-.004-.024-.004-.024-.004-.023-.003-.023-.003-.023-.002-.023-.002-.023v-.023s-.002-.023-.002-.023v-.023s0-.023,0-.023v-.023s.002-.023.002-.023l.002-.023.002-.022.003-.022.003-.022.004-.022.004-.022.005-.022.006-.022.006-.022.007-.022.007-.022.008-.022.008-.022.009-.021.009-.021.01-.021.01-.021.011-.021.011-.021.012-.021.012-.021.013-.021.014-.021.014-.021.015-.021.015-.021.016-.02.016-.02.017-.02.017-.02c.433-.475,1.091-.738,1.684-.957.963-.339,2.002-.569,3.003-.772,1.846-.366,3.977-.658,5.851-.903" fill="none" stroke="#f368e0" stroke-linecap="round" stroke-linejoin="round" stroke-width="2.75"/>
    </g>
    <g id="POLYLINE29" data-name="POLYLINE">
      <path d="M577.022,152.011c7.748,2.203,15.941,2.445,23.949,2.457" fill="none" stroke="#f368e0" stroke-linecap="round" stroke-linejoin="round" stroke-width="2.75"/>
    </g>
    <g id="POLYLINE30" data-name="POLYLINE">
      <path d="M505.781,103.909c21.388,9.885,45.424,21.911,65.987,33.345,11.88,6.63,24.363,13.913,35.698,21.428" fill="none" stroke="#f368e0" stroke-linecap="round" stroke-linejoin="round" stroke-width="2.75"/>
    </g>
    <g id="POLYLINE31" data-name="POLYLINE">
      <path d="M249.802,130.678c6.51,3.644,14.924,8.33,21.52,11.715,4.141,2.109,8.616,4.328,12.924,6.043,1.815.714,3.714,1.397,5.608,1.858.72.173,1.472.322,2.208.404.694.117,237.542,11.228,238.263,11.297" fill="none" stroke="#f368e0" stroke-linecap="round" stroke-linejoin="round" stroke-width="2.75"/>
    </g>
    <g id="POLYLINE32" data-name="POLYLINE">
      <line x1="538.129" y1="164.004" x2="538.238" y2="165.534" fill="none" stroke="#f368e0" stroke-linecap="round" stroke-linejoin="round" stroke-width="2.75"/>
    </g>
    <g id="POLYLINE33" data-name="POLYLINE">
      <line x1="536.034" y1="134.537" x2="536.472" y2="140.698" fill="none" stroke="#f368e0" stroke-linecap="round" stroke-linejoin="round" stroke-width="2.75"/>
    </g>
    <g id="POLYLINE34" data-name="POLYLINE">
      <line x1="527.678" y1="151.833" x2="560.355" y2="157.559" fill="none" stroke="#f368e0" stroke-linecap="round" stroke-linejoin="round" stroke-width="2.75"/>
    </g>
    <g id="POLYLINE35" data-name="POLYLINE">
      <path d="M554.12,164.747c2.536.161,5.181.377,7.709.063.583-.085,1.173-.208,1.709-.459.483-.219.889-.578,1.208-.998.45-.581.759-1.271.911-1.989.112-.528.142-1.077.081-1.613-.05-.472-.188-.94-.445-1.341-.339-.538-.823-.971-1.323-1.358-1.208-.914-2.579-1.637-3.923-2.328" fill="none" stroke="#f368e0" stroke-linecap="round" stroke-linejoin="round" stroke-width="2.75"/>
    </g>
    <g id="POLYLINE36" data-name="POLYLINE">
      <path d="M546.51,164.63c-2.633-.163-5.927-.335-8.529-.643-1.555-.184-3.169-.404-4.685-.795-1.597-.42-3.25-1.063-4.324-2.374-.712-.866-1.094-1.955-1.297-3.045-.328-1.806-.234-3.674-.048-5.491.232-2.091.602-4.204,1.264-6.204.426-1.255.984-2.519,1.942-3.462.787-.783,1.823-1.265,2.886-1.549,1.89-.507,3.894-.451,5.806-.099,1.826.337,3.604.971,5.311,1.691,2.356,1.004,4.695,2.226,6.906,3.515,1.549.914,3.132,1.882,4.535,3.011.858.694,1.671,1.47,2.322,2.365,1.228,1.664,1.753,3.759,1.757,5.807-.004,1.221-.145,2.462-.527,3.625-.26.777-.663,1.519-1.245,2.101-.527.533-1.19.921-1.895,1.167-.952.332-1.97.456-2.971.526-2.341.146-4.862-.03-7.207-.147Z" fill="none" stroke="#f368e0" stroke-linecap="round" stroke-linejoin="round" stroke-width="2.75"/>
    </g>
    <g id="POLYLINE37" data-name="POLYLINE">
      <path d="M388.146,101.156c1.354,13.466,4.416,40.588,6.083,54.036" fill="none" stroke="#f368e0" stroke-linecap="round" stroke-linejoin="round" stroke-width="2.75"/>
    </g>
    <g id="POLYLINE38" data-name="POLYLINE">
      <path d="M406.295,101.187c4.831,14.967,13.092,40.535,17.425,55.379" fill="none" stroke="#f368e0" stroke-linecap="round" stroke-linejoin="round" stroke-width="2.75"/>
    </g>
    <g id="POLYLINE39" data-name="POLYLINE">
      <path d="M788.372,263.34c-.23-1.14-.644-2.26-1.083-3.335-.995-2.409-2.322-4.953-3.526-7.273-1.019-1.922-2.07-3.932-3.348-5.694-.713-.983-1.539-1.906-2.534-2.61-1.415-1.025-3.111-1.571-4.775-2.046-.815-.226-1.667-.442-2.506-.556-.461-.061-.935-.1-1.4-.061-.337.029-.68.102-.972.281-.245.149-.438.371-.577.62-.167.295-.273.624-.36.95-.405,1.622-.856,5.68-1.118,7.39-.623,4.778-1.141,10.084-1.348,14.901,0,.341.018.692.132,1.017.141.418.459.727.842.933.495.268,1.052.409,1.599.527,1.375.28,2.856.403,4.255.516,2.588.19,5.449.28,8.045.317,1.41.002,2.961.04,4.361-.107.564-.061,1.137-.154,1.675-.338.635-.216,1.231-.567,1.699-1.052.44-.452.759-1.019.929-1.626" fill="none" stroke="#f368e0" stroke-linecap="round" stroke-linejoin="round" stroke-width="2.75"/>
    </g>
    <g id="POLYLINE40" data-name="POLYLINE">
      <path d="M764.889,264.562l31.971,2.084c.07.005.143.004.213-.003.236-.021.467-.105.661-.241.339-.234.561-.627.586-1.038.029-.411-.14-.83-.446-1.105-.175-.16-.393-.273-.624-.324-.069-.015-.141-.026-.211-.03,0,0-31.974-2.084-31.974-2.084" fill="none" stroke="#f368e0" stroke-linecap="round" stroke-linejoin="round" stroke-width="2.75"/>
    </g>
    <g id="POLYLINE41" data-name="POLYLINE">
      <path d="M761.99,238.158c-.154,1.701-3.435,30.773-3.36,31.674,0,.374-.009.77.149,1.118.118.252.34.438.595.544.217.094.452.149.684.193.398.081.86.113,1.266.152,10.177.627,25.902.855,36.206.966.496-.02,1.013-.04,1.5-.149.277-.062.55-.16.785-.322.431-.3.715-.763.946-1.225.316-.645.533-1.349.721-2.041.175-.683.347-1.395.449-2.093.098-.665.126-1.348.056-2.017-.068-.69-.24-1.376-.454-2.035-.274-.846-.64-1.725-.988-2.544-1.516-3.35-4.379-9.806-5.975-13.052-.853-1.695-1.678-3.523-2.869-5.01-.818-1.026-1.866-1.847-2.956-2.566-3.604-2.329-7.686-4.017-11.648-5.636-3.192-1.247-7.148-2.777-10.399-3.834-.533-.159-1.111-.35-1.662-.439-.342-.055-.706-.091-1.038.029-.253.093-.463.283-.602.512-.169.276-.267.592-.354.901-.526,2.129-.76,4.692-1.049,6.876Z" fill="none" stroke="#f368e0" stroke-linecap="round" stroke-linejoin="round" stroke-width="2.75"/>
    </g>
    <g id="POLYLINE42" data-name="POLYLINE">
      <path d="M816.241,274.597c1.152-13.225,2.07-28.09,2.242-41.34.007-2.426-.049-5.03-.242-7.443-.439-5.89-1.798-11.735-4.118-17.171" fill="none" stroke="#f368e0" stroke-linecap="round" stroke-linejoin="round" stroke-width="2.75"/>
    </g>
    <g id="POLYLINE43" data-name="POLYLINE">
      <path d="M810.593,279.592c1.568-.209,3.175-.453,4.7-.879.683-.198,1.372-.431,1.978-.81.419-.261.744-.603.968-1.043.158-.299.286-.623.311-.963.015-.209-.017-.426-.12-.611-.1-.18-.265-.321-.453-.404-.156-.07-.326-.109-.493-.141-.961-.162-2.08-.196-3.056-.262" fill="none" stroke="#f368e0" stroke-linecap="round" stroke-linejoin="round" stroke-width="2.75"/>
    </g>
    <g id="POLYLINE44" data-name="POLYLINE">
      <path d="M154.169,141.648c-5.994,2.374-12.277,4.421-18.546,5.922-7.114,1.713-14.681,2.884-21.943,3.816-3.968.512-12.145,1.332-16.179,1.76-.619.081-1.302.171-1.91.303-.626.132-1.246.322-1.824.599-.815.39-1.568.92-2.277,1.477-1.271,1.005-2.492,2.206-3.63,3.361-1.076,1.106-2.203,2.299-3.157,3.511-.499.638-.981,1.309-1.361,2.026-.728,1.337-.877,2.893-1.006,4.384-.251,3.185-.686,10.77-1.112,13.807-.126.908-.304,1.831-.551,2.714-.874,3.022-2.429,5.942-3.838,8.747-2.959,5.615-6.153,11.29-10.155,16.235-1.034,1.268-2.202,2.554-3.373,3.697-1.231,1.224-3.611,3.285-4.918,4.452-1.406,1.278-2.859,2.718-3.314,4.627-.258,1.034-.321,2.114-.301,3.177.025,1.028.121,2.066.309,3.077.208,1.126.624,2.246.781,3.383.142.864.223,1.825.259,2.704.022.321.056.648.156.955.088.275.238.534.45.732.234.221.529.366.83.471.458.158.949.244,1.427.317,3.49.422,10.902.834,14.371,1.201,1.689.173,3.646.357,5.308.688.57.118,1.148.265,1.688.485.561.227,1.09.553,1.503.998.554.592.901,1.347,1.169,2.104.555,1.62.805,3.355,1.032,5.047l.661,5.777c.39,3.044.912,6.178,2.374,8.913.613,1.127,1.404,2.196,2.465,2.938.681.473,1.466.782,2.256,1.021.752.227,1.564.405,2.336.558,3.786.737,9.876,1.387,13.754,1.88.019.005,56.744,5.808,56.766,5.811.125.009.242.01.365,0,.407-.031.801-.169,1.137-.398.497-.334.848-.864.972-1.448.753-5.428,1.895-12.713,2.806-18.102,0,0,.919-5.117.919-5.117.085-.558.27-1.302.377-1.855.373-1.653.808-3.363,1.316-4.979,1.808-5.828,4.509-11.401,7.967-16.429,9.769-14.263,25.437-23.784,42.592-25.886,23.471-2.937,46.616,8.116,59.094,28.179,5.224,8.367,8.36,18.033,9.044,27.873.497,6.898.612,14.726.624,21.661.023.335.117.667.279.962.296.546.814.963,1.412,1.131.282.345,311.614-.211,312.083-.091.815-.083,1.56-.625,1.886-1.377.087-.198.149-.41.178-.625.011-.094.022-.19.022-.284,0,0,.138-6.033.138-6.033.08-3.835.393-9.475.633-13.276.155-2.207.35-4.667.707-6.837.589-3.766,1.548-7.511,2.84-11.098,3.985-11.115,11.339-20.993,20.844-27.998,12.388-9.199,28.175-13.305,43.477-11.303,18.243,2.318,34.618,13.055,44.015,28.869,4.336,7.261,7.118,15.461,8.093,23.862.777,7.514.951,15.906,1.122,23.475,0,.16.024.324.058.48.158.725.69,1.355,1.376,1.637.284.119.596.182.905.182,13.066-.065,59.342.099,71.958-.16,0,0,.948-.03.948-.03l.864-.036.785-.042.713-.049.331-.027.315-.029c1.297-.135,2.652-.326,3.769-1.047.469-.299.896-.677,1.248-1.109.413-.505.738-1.083.988-1.684.569-1.374.794-2.869.928-4.342.337-4.37-.025-9.205-.25-13.592-.614-9.305-1.547-18.817-4.079-27.816-.476-1.599-.956-3.231-1.696-4.73-.384-.767-.815-1.528-1.433-2.132-.567-.559-1.264-.964-1.987-1.285-.974-.431-2.029-.766-3.057-1.048-6.612-1.781-60.041-11.499-68.015-13.23-.288-.119-.551-.298-.77-.52-.621-.619-.834-1.587-.54-2.411.051-.152.126-.303.208-.441.118-.181.23-.373.281-.585.03-.12.043-.245.034-.368-.013-.177-.061-.35-.131-.513-.109-.263-.266-.507-.443-.729-.414-.522-.952-.958-1.472-1.371-2.168-1.737-9.534-5.983-12.044-7.574-2.129-1.319-4.406-2.796-6.402-4.277-1.801-1.342-3.552-2.854-5.183-4.397" fill="none" stroke="#f368e0" stroke-linecap="round" stroke-linejoin="round" stroke-width="2.75"/>
    </g>
    <g id="POLYLINE45" data-name="POLYLINE">
      <path d="M154.169,141.648c27.313-10.086,56.968-20.96,84.838-29.179,12.123-3.532,25.405-6.657,37.806-9.037,35.567-6.818,72.247-10.528,108.458-10.974,22.419-.213,45.365.65,67.5,4.341,14.33,2.385,28.549,6.207,41.934,11.89,11.61,4.892,24.425,11.371,35.738,17.003,11.244,5.745,23.927,12.225,34.72,18.716,3.406,2.053,7.218,4.462,10.513,6.691,0,0,7.757,5.351,7.757,5.351l.394.265s.184.121.184.121c0,0,.177.114.177.114l.17.107.164.1s.08.048.08.048c0,0,.079.046.079.046,0,0,.078.045.078.045,0,0,.077.043.077.043,0,0,.077.042.077.042,0,0,.076.04.076.04,1.064.585,2.303.683,3.493.749l1.206.054c9.229.225,25.136.681,34.271.756,3.017.009,7.551-.163,10.598-.199,10.281-.009,21.022.915,31.263,1.869,27.33,2.713,54.87,7.431,81.503,14.154,8.865,2.267,18.435,4.892,27.077,7.855,7.214,2.478,14.41,5.435,21.013,9.276,5.157,2.994,10.113,6.48,14.668,10.327.966.827,1.975,1.717,2.849,2.641.515.549,1.013,1.135,1.394,1.787.285.501.631,1.236.15,1.72-.398.386-1.012.389-1.532.362-.568-.037-1.146-.151-1.7-.277-1.358-.309-2.909-.829-4.241-1.267-7.823-2.728-18.648-6.568-26.444-8.848-7.421-2.183-15.275-4.139-22.843-5.669-10.062-2.041-21.458-3.852-31.629-5.315-34.872-4.72-77.144-9.796-112.158-12.662-.625-.059-1.284-.13-1.884-.324-.526-.166-1.024-.424-1.479-.735-.99-.68-1.831-1.568-2.627-2.461-3.351-3.9-6.329-8.49-9.224-12.74" fill="none" stroke="#f368e0" stroke-linecap="round" stroke-linejoin="round" stroke-width="2.75"/>
    </g>
    <g id="POLYLINE46" data-name="POLYLINE">
      <path d="M242.573,102.701c1.869,1.087,4.936,2.754,6.701,3.933.338.232.678.48.976.762.306.295.583.638.734,1.039.086.235.105.493.058.739" fill="none" stroke="#f368e0" stroke-linecap="round" stroke-linejoin="round" stroke-width="2.75"/>
    </g>
    <g id="POLYLINE47" data-name="POLYLINE">
      <path d="M583.531,270.281c3.218-6.695,5.92-13.737,7.49-21.01.923-4.171,1.441-8.535,1.777-12.793.603-7.365.523-15.388.274-22.793-.563-12.631-.906-25.748-3.76-38.1,0,0-.122-.493-.122-.493,0,0-.06-.231-.06-.231l-.06-.221c-.119-.397-.234-.798-.399-1.178-.194-.462-.444-.905-.735-1.313-.865-1.186-2.008-2.26-3.061-3.282-5.149-4.933-10.815-9.518-16.559-13.737-8.598-6.312-18.314-12.404-27.509-17.837-10.829-6.312-22.42-12.481-33.818-17.659-12.551-5.708-25.646-10.778-38.988-14.303-11.074-2.935-22.645-4.75-34.046-5.793-28.229-2.511-57.293-1.683-85.541.273-16.103,1.218-33.48,3.048-49.405,5.67-14.78,2.399-30.063,5.75-44.55,9.577-8.869,2.38-19.453,5.516-28.184,8.373-3.937,1.335-27.152,9.007-31.24,10.171-4.262,1.27-8.943,2.456-13.32,3.275-6.858,1.297-13.919,1.727-20.888,1.419-4.948-.234-9.867-1.193-14.606-2.619" fill="none" stroke="#f368e0" stroke-linecap="round" stroke-linejoin="round" stroke-width="2.75"/>
    </g>
    <g id="POLYLINE48" data-name="POLYLINE">
      <path d="M137.89,139.205c11.288-4.828,24.828-10.377,36.297-14.694,12.639-4.786,28.739-10.164,41.664-14.272,12.211-3.79,25.18-7.538,37.733-9.928" fill="none" stroke="#f368e0" stroke-linecap="round" stroke-linejoin="round" stroke-width="2.75"/>
    </g>
    <g id="POLYLINE49" data-name="POLYLINE">
      <path d="M731.952,280.5c.507,1.809,1.015,3.709,1.812,5.412.34.696.757,1.403,1.419,1.837.615.396,1.347.574,2.07.627,1.565.102,3.224-.079,4.786-.213,16.807-1.833,35.688-4.835,52.39-7.705" fill="none" stroke="#f368e0" stroke-linecap="round" stroke-linejoin="round" stroke-width="2.75"/>
    </g>
    <g id="POLYLINE50" data-name="POLYLINE">
      <path d="M801.482,205.311c2.763,2.771,5.193,5.94,6.784,9.533,1.267,2.809,2.021,5.89,2.746,8.878,1.45,6.123,1.729,12.557,1.97,18.825" fill="none" stroke="#f368e0" stroke-linecap="round" stroke-linejoin="round" stroke-width="2.75"/>
    </g>
    <g id="POLYLINE51" data-name="POLYLINE">
      <line x1="570.702" y1="156.906" x2="583.588" y2="156.556" fill="none" stroke="#f368e0" stroke-linecap="round" stroke-linejoin="round" stroke-width="2.75"/>
    </g>
    <g id="POLYLINE52" data-name="POLYLINE">
      <path d="M536.3,138.281c-13.163-7.553-27.059-14.587-41.088-20.362-11.396-4.679-23.308-8.731-35.352-11.345-11.268-2.483-23.052-3.821-34.561-4.595-13.407-.902-27.724-1.01-41.182-.75-27.804.687-56.473,2.812-83.932,7.218-15.473,2.514-31.255,5.937-46.39,10.015" fill="none" stroke="#f368e0" stroke-linecap="round" stroke-linejoin="round" stroke-width="2.75"/>
    </g>
    <g id="POLYLINE53" data-name="POLYLINE">
      <path d="M74.319,267.417c.15,1.043.308,2.39.525,3.413.044.196.094.397.165.585.073.195.178.384.34.519.138.113.296.203.457.276.14.059.291.093.44.12.878.142,1.839.147,2.728.172,10.98.086,32.08-1.021,43.273-1.432" fill="none" stroke="#f368e0" stroke-linecap="round" stroke-linejoin="round" stroke-width="2.75"/>
    </g>
    <g id="POLYLINE54" data-name="POLYLINE">
      <path d="M56.76,237.143c.031,2.112.147,4.318.347,6.421" fill="none" stroke="#f368e0" stroke-linecap="round" stroke-linejoin="round" stroke-width="2.75"/>
    </g>
    <g id="POLYLINE55" data-name="POLYLINE">
      <path d="M90.362,266.521c-2.826-.111-5.821-.14-8.599-.686-.726-.156-1.453-.369-2.113-.716-.5-.259-.956-.602-1.365-.988-.906-.869-1.831-2.015-2.648-2.975-4.113-5.008-9.251-11.849-13.836-16.332-.369-.328-.767-.636-1.217-.844-1.172-.528-2.55-.412-3.805-.411-.497.021-1.091.032-1.49.366-.289.247-.385.643-.397,1.009-.012.397.058.794.156,1.178.176.683.451,1.346.749,1.984,1.632,3.322,3.912,6.652,5.941,9.75,1.617,2.351,3.284,4.861,5.209,6.969.598.631,1.259,1.229,2.046,1.612.605.298,1.273.449,1.935.558,6.907,1.123,20.029,1.007,27.133,1.274" fill="none" stroke="#f368e0" stroke-linecap="round" stroke-linejoin="round" stroke-width="2.75"/>
    </g>
    <g id="POLYLINE56" data-name="POLYLINE">
      <path d="M78.972,248.301c-1.737-.207-7.09-.719-8.723-1.031-.486-.091-.989-.195-1.454-.364-.313-.116-.626-.251-.89-.459-.448-.357-.781-.844-1.111-1.307-.584-.855-1.149-1.749-1.598-2.683-.104-.231-.211-.47-.256-.72-.027-.15-.023-.32.077-.444.072-.09.179-.144.286-.18.203-.066.421-.084.633-.096.424-.021.88.001,1.305.025,2.043.135,5.334.518,7.396.721,1.349.161,3.045.322,4.37.57.268.053.547.116.806.204.319.108.63.269.857.522.314.351.478.808.612,1.252.147.498.242,1.043.327,1.555.072.497.168,1.043.2,1.544.014.261.026.533-.054.785-.033.098-.088.192-.176.249-.08.052-.176.073-.27.083-.567.038-1.755-.173-2.337-.227Z" fill="none" stroke="#f368e0" stroke-linecap="round" stroke-linejoin="round" stroke-width="2.75"/>
    </g>
    <g id="POLYLINE57" data-name="POLYLINE">
      <path d="M70.744,175.242c-1.024-1.698-2.278-3.77-3.213-5.503-.475-.89-.959-1.828-1.306-2.774-.19-.558-.409-1.141-.363-1.74.041-.539.224-1.06.42-1.56.264-.659.607-1.347.934-1.979,1.341-2.569,3.304-5.73,4.822-8.225" fill="none" stroke="#f368e0" stroke-linecap="round" stroke-linejoin="round" stroke-width="2.75"/>
    </g>
    <g id="POLYLINE58" data-name="POLYLINE">
      <path d="M68.196,208.362c1.442-3.247,2.51-6.692,3.186-10.179.839-4.239,1.069-8.71,1.218-13.025" fill="none" stroke="#f368e0" stroke-linecap="round" stroke-linejoin="round" stroke-width="2.75"/>
    </g>
    <g id="POLYLINE59" data-name="POLYLINE">
      <path d="M120.814,191.418c-1.167-3.283-2.557-6.958-3.416-10.314-.148-.615-.288-1.249-.336-1.881-.03-.437-.015-.892.153-1.303.156-.391.463-.702.808-.933.462-.309.984-.532,1.501-.732,2.377-.868,5.02-1.382,7.493-1.914,4.963-1.042,13.891-2.559,18.678-3.986.95-.297,1.924-.634,2.799-1.114.498-.273.972-.608,1.352-1.033.484-.535.829-1.184,1.158-1.821.498-1.011.96-2.071,1.179-3.182.102-.537.116-1.162-.266-1.596-.179-.205-.417-.349-.667-.451-.544-.222-1.144-.283-1.724-.333-2.346-.163-6.121-.058-8.521-.05-12.383.385-35.285.349-47.342,1.631-2.823.299-5.718.746-8.485,1.386-3.039.707-6.14,1.657-9.079,2.705-1.348.508-2.747,1.031-3.973,1.797-.413.267-.808.584-1.082.997-.362.539-.47,1.201-.502,1.838-.067,2.13.252,4.511.474,6.636.19,1.43.43,3.849.746,5.234.119.514.259,1.036.479,1.517.226.502.547.979,1.004,1.297.606.417,1.348.582,2.058.735,11.908,1.781,33.336,3.615,45.513,4.871Z" fill="none" stroke="#f368e0" stroke-linecap="round" stroke-linejoin="round" stroke-width="2.75"/>
    </g>
    <g id="POLYLINE60" data-name="POLYLINE">
      <line x1="293.352" y1="150.784" x2="288.433" y2="110.514" fill="none" stroke="#f368e0" stroke-linecap="round" stroke-linejoin="round" stroke-width="2.75"/>
    </g>
    <g id="POLYLINE61" data-name="POLYLINE">
      <line x1="292.375" y1="109.785" x2="297.406" y2="150.975" fill="none" stroke="#f368e0" stroke-linecap="round" stroke-linejoin="round" stroke-width="2.75"/>
    </g>
    <g id="POLYLINE62" data-name="POLYLINE">
      <path d="M75.653,144.413c14.794-.701,31.429-1.438,46.091-3.184,3.008-.35,7.984-1.178,11.023-1.673.918-.139,1.934-.291,2.858-.365,1.233-.115,2.486,0,3.704.209,11.198,2.146,22.764,3.382,34.168,3.092,6.804-.101,14.322-1.251,21.068-2.274,12.637-2.017,42.355-7.241,55.238-9.54" fill="none" stroke="#f368e0" stroke-linecap="round" stroke-linejoin="round" stroke-width="2.75"/>
    </g>
    <g id="POLYLINE63" data-name="POLYLINE">
      <path d="M238.084,132.765c6.152,3.426,20.453,11.349,26.513,14.578,1.364.701,3.773,1.979,5.131,2.604,2.583,1.223,5.331,2.155,8.144,2.669,1.5.277,3.108.47,4.626.616.54.059,2.144.175,2.706.22,0,0,2.434.155,2.434.155,0,0,296.265,14.337,296.265,14.337" fill="none" stroke="#f368e0" stroke-linecap="round" stroke-linejoin="round" stroke-width="2.75"/>
    </g>
    <g id="POLYLINE64" data-name="POLYLINE">
      <line x1="254.951" y1="114.926" x2="249.802" y2="130.678" fill="none" stroke="#f368e0" stroke-linecap="round" stroke-linejoin="round" stroke-width="2.75"/>
    </g>
    <g id="POLYLINE65" data-name="POLYLINE">
      <path d="M84.762,156.24c-2.987-.505-7.361-1.106-10.265-1.793-.483-.117-.974-.254-1.438-.432-.442-.165-.873-.388-1.211-.723-.295-.286-.547-.635-.788-.967-.815-1.152-1.605-2.376-2.257-3.628-.356-.705-.702-1.442-.818-2.23-.065-.453-.023-.938.22-1.335.246-.418.673-.693,1.127-.841.515-.171,1.064-.229,1.604-.255,1.012-.041,2.051.042,3.058.151,1.457.157,2.924.424,4.33.838,2.351.686,4.613,1.704,6.78,2.835,5.963,3.162,11.523,7.221,16.853,11.343" fill="none" stroke="#f368e0" stroke-linecap="round" stroke-linejoin="round" stroke-width="2.75"/>
    </g>
    <g id="POLYLINE66" data-name="POLYLINE">
      <path d="M607.954,270.271c-.894-.041-289.822-1.999-290.639-2.105-.511-.042-1.046-.116-1.546-.219-1.234-.251-2.44-.689-3.548-1.287-1.83-.985-3.418-2.426-4.577-4.151-.411-.611-.779-1.274-1.079-1.947-.188-.359-2.122-5.637-2.328-6.161-4.318-11.115-9.012-22.398-15.712-32.311-3.795-5.601-8.539-10.64-13.36-15.365-8.293-8.262-23.884-19.974-33.122-27.396-2.426-1.99-4.989-4.072-7.147-6.346-1.594-1.679-2.988-3.598-3.823-5.771-.595-1.523-.9-3.154-.965-4.785-.079-1.96.158-3.941.54-5.862.247-1.248.626-2.649.971-3.879,2.794-9.449,8.226-24.979,11.377-34.433" fill="none" stroke="#f368e0" stroke-linecap="round" stroke-linejoin="round" stroke-width="2.75"/>
    </g>
    <g id="POLYLINE67" data-name="POLYLINE">
      <path d="M411.008,269.168c2.642-14.98,5.415-30.747,5.697-45.953.106-6.006-.263-12.236-.789-18.221-.788-8.655-2.051-17.844-3.653-26.384-1.15-6.42-3.337-14.241-4.676-20.631l-11.465-60.004" fill="none" stroke="#f368e0" stroke-linecap="round" stroke-linejoin="round" stroke-width="2.75"/>
    </g>
    <g id="POLYLINE68" data-name="POLYLINE">
      <line x1="717.373" y1="278.234" x2="729.614" y2="278.2" fill="none" stroke="#f368e0" stroke-linecap="round" stroke-linejoin="round" stroke-width="2.75"/>
    </g>
    <g id="POLYLINE69" data-name="POLYLINE">
      <line x1="607.744" y1="278.539" x2="620.126" y2="278.505" fill="none" stroke="#f368e0" stroke-linecap="round" stroke-linejoin="round" stroke-width="2.75"/>
    </g>
    <g id="POLYLINE70" data-name="POLYLINE">
      <line x1="280.873" y1="278.19" x2="291.878" y2="278.661" fill="none" stroke="#f368e0" stroke-linecap="round" stroke-linejoin="round" stroke-width="2.75"/>
    </g>
    <g id="POLYLINE71" data-name="POLYLINE">
      <line x1="167.171" y1="273.316" x2="182.101" y2="273.956" fill="none" stroke="#f368e0" stroke-linecap="round" stroke-linejoin="round" stroke-width="2.75"/>
    </g>
    <g id="POLYLINE72" data-name="POLYLINE">
      <path d="M706.202,259.872c.025-12.596-6.432-24.529-16.991-31.397-19.289-12.542-45.097-5.041-54.659,15.885-4.468,9.764-4.468,21.26,0,31.025,9.562,20.927,35.37,28.427,54.659,15.885,10.559-6.868,17.017-18.801,16.991-31.397Z" fill="none" stroke="#f368e0" stroke-linecap="round" stroke-linejoin="round" stroke-width="2.75"/>
    </g>
    <g id="POLYLINE73" data-name="POLYLINE">
      <path d="M720.721,259.872c.028-17.49-8.912-34.009-23.569-43.552-26.773-17.395-62.54-7-75.818,22.034-6.2,13.568-6.2,29.467,0,43.035,13.279,29.035,49.046,39.43,75.818,22.034,14.657-9.543,23.597-26.062,23.569-43.552Z" fill="none" stroke="#f368e0" stroke-linecap="round" stroke-linejoin="round" stroke-width="2.75"/>
    </g>
    <g id="POLYLINE74" data-name="POLYLINE">
      <line x1="634.808" y1="243.808" x2="657.406" y2="259.92" fill="none" stroke="#f368e0" stroke-linecap="round" stroke-linejoin="round" stroke-width="2.75"/>
    </g>
    <g id="POLYLINE75" data-name="POLYLINE">
      <line x1="642.947" y1="287.14" x2="665.254" y2="270.626" fill="none" stroke="#f368e0" stroke-linecap="round" stroke-linejoin="round" stroke-width="2.75"/>
    </g>
    <g id="POLYLINE76" data-name="POLYLINE">
      <line x1="686.673" y1="292.789" x2="677.861" y2="266.471" fill="none" stroke="#f368e0" stroke-linecap="round" stroke-linejoin="round" stroke-width="2.75"/>
    </g>
    <g id="POLYLINE77" data-name="POLYLINE">
      <line x1="705.557" y1="252.949" x2="677.804" y2="253.197" fill="none" stroke="#f368e0" stroke-linecap="round" stroke-linejoin="round" stroke-width="2.75"/>
    </g>
    <g id="POLYLINE78" data-name="POLYLINE">
      <line x1="673.503" y1="222.677" x2="665.163" y2="249.149" fill="none" stroke="#f368e0" stroke-linecap="round" stroke-linejoin="round" stroke-width="2.75"/>
    </g>
    <g id="POLYLINE79" data-name="POLYLINE">
      <path d="M675.908,259.872c.009-3.283-2.256-6.193-5.441-6.99-4.534-1.14-8.932,2.253-8.981,6.927-.032,4.728,4.396,8.205,8.981,7.053,3.185-.797,5.45-3.707,5.441-6.99Z" fill="none" stroke="#f368e0" stroke-linecap="round" stroke-linejoin="round" stroke-width="2.75"/>
    </g>
    <g id="POLYLINE80" data-name="POLYLINE">
      <path d="M666.133,266.612l-3.77,17.226c-.008.036-.019.079-.029.114-.044.15-.109.296-.191.429-.077.124-.172.24-.278.341-.019.018-.046.042-.066.059,0,0-10,8.573-10,8.573" fill="none" stroke="#f368e0" stroke-linecap="round" stroke-linejoin="round" stroke-width="2.75"/>
    </g>
    <g id="POLYLINE81" data-name="POLYLINE">
      <path d="M668.45,267.079l-3.844,24.501c-.009.058-.016.121-.019.179-.006.119,0,.242.019.36.044.277.157.544.325.768.258.346.65.588,1.075.663,1.302.129,2.657.133,3.964.092.962-.036,1.979-.119,2.935-.239.078-.01.159-.026.234-.046.375-.1.714-.331.943-.645.153-.208.259-.452.307-.706.022-.117.032-.238.029-.356-.001-.048-.004-.102-.01-.149,0,0-2.705-25.075-2.705-25.075" fill="none" stroke="#f368e0" stroke-linecap="round" stroke-linejoin="round" stroke-width="2.75"/>
    </g>
    <g id="POLYLINE82" data-name="POLYLINE">
      <path d="M674.314,264.395l15.218,8.909c.032.019.069.042.099.063.129.088.248.195.349.314.094.112.176.238.239.37.011.023.026.057.036.081,0,0,5.063,12.16,5.063,12.16" fill="none" stroke="#f368e0" stroke-linecap="round" stroke-linejoin="round" stroke-width="2.75"/>
    </g>
    <g id="POLYLINE83" data-name="POLYLINE">
      <path d="M675.475,262.335l22.114,11.227c.052.026.11.052.165.073.112.043.23.074.348.093.277.044.565.019.831-.072.409-.139.76-.437.963-.818.525-1.199.948-2.486,1.313-3.742.263-.926.498-1.919.679-2.865.015-.077.025-.159.029-.237.021-.388-.095-.781-.322-1.096-.15-.21-.349-.386-.576-.51-.104-.057-.216-.104-.33-.138-.046-.013-.098-.027-.145-.037,0,0-24.684-5.176-24.684-5.176" fill="none" stroke="#f368e0" stroke-linecap="round" stroke-linejoin="round" stroke-width="2.75"/>
    </g>
    <g id="POLYLINE84" data-name="POLYLINE">
      <path d="M674.734,255.928l13.175-11.72c.027-.024.061-.053.091-.075.124-.096.262-.175.407-.234.136-.055.28-.094.426-.113.026-.003.062-.007.088-.009,0,0,13.129-1.058,13.129-1.058" fill="none" stroke="#f368e0" stroke-linecap="round" stroke-linejoin="round" stroke-width="2.75"/>
    </g>
    <g id="POLYLINE85" data-name="POLYLINE">
      <path d="M673.134,254.188l17.511-17.562c.041-.042.084-.089.121-.134.075-.093.142-.196.196-.302.127-.25.193-.532.188-.812-.006-.432-.181-.858-.48-1.169-.978-.87-2.071-1.67-3.153-2.405-.8-.536-1.671-1.067-2.515-1.531-.069-.038-.143-.072-.216-.1-.362-.14-.772-.151-1.142-.033-.246.078-.475.213-.663.39-.086.081-.166.174-.233.271-.027.039-.056.085-.08.126,0,0-12.55,21.877-12.55,21.877" fill="none" stroke="#f368e0" stroke-linecap="round" stroke-linejoin="round" stroke-width="2.75"/>
    </g>
    <g id="POLYLINE86" data-name="POLYLINE">
      <path d="M666.812,252.913l-7.075-16.152c-.015-.034-.031-.075-.044-.109-.053-.147-.086-.303-.097-.459-.011-.146-.002-.296.024-.44.005-.025.012-.061.018-.086,0,0,3.051-12.814,3.051-12.814" fill="none" stroke="#f368e0" stroke-linecap="round" stroke-linejoin="round" stroke-width="2.75"/>
    </g>
    <g id="POLYLINE87" data-name="POLYLINE">
      <path d="M664.662,253.897l-11.292-22.081c-.027-.052-.058-.107-.09-.156-.065-.1-.142-.195-.227-.28-.198-.198-.446-.348-.714-.43-.412-.128-.872-.093-1.26.096-1.129.661-2.228,1.454-3.261,2.255-.757.595-1.531,1.26-2.234,1.918-.057.054-.113.114-.162.175-.245.301-.383.688-.384,1.076-.002.258.056.518.166.751.051.107.114.211.186.306.029.038.063.08.095.115,0,0,16.928,18.696,16.928,18.696" fill="none" stroke="#f368e0" stroke-linecap="round" stroke-linejoin="round" stroke-width="2.75"/>
    </g>
    <g id="POLYLINE88" data-name="POLYLINE">
      <path d="M661.496,259.516l-17.548,1.737c-.037.004-.081.006-.117.008-.156.005-.315-.012-.467-.049-.142-.035-.282-.089-.411-.159-.023-.012-.054-.031-.077-.044,0,0-11.244-6.862-11.244-6.862" fill="none" stroke="#f368e0" stroke-linecap="round" stroke-linejoin="round" stroke-width="2.75"/>
    </g>
    <g id="POLYLINE89" data-name="POLYLINE">
      <path d="M661.767,261.864l-24.49,3.915c-.058.009-.12.022-.176.038-.115.031-.23.075-.336.129-.25.127-.469.317-.63.547-.249.352-.358.8-.298,1.228.28,1.278.694,2.568,1.137,3.799.332.904.725,1.845,1.134,2.717.033.071.073.143.116.208.211.326.536.576.904.698.245.082.51.107.766.074.118-.015.236-.043.348-.082.045-.016.095-.035.139-.055,0,0,23.012-10.322,23.012-10.322" fill="none" stroke="#f368e0" stroke-linecap="round" stroke-linejoin="round" stroke-width="2.75"/>
    </g>
    <g id="POLYLINE90" data-name="POLYLINE">
      <path d="M662.841,250.335c-1.241.761-2.335,1.773-3.192,2.95" fill="none" stroke="#f368e0" stroke-linecap="round" stroke-linejoin="round" stroke-width="2.75"/>
    </g>
    <g id="POLYLINE91" data-name="POLYLINE">
      <path d="M675.958,251.355c-1.108-.945-2.408-1.673-3.792-2.124" fill="none" stroke="#f368e0" stroke-linecap="round" stroke-linejoin="round" stroke-width="2.75"/>
    </g>
    <g id="POLYLINE92" data-name="POLYLINE">
      <path d="M679.041,264.146c.558-1.349.849-2.814.848-4.273" fill="none" stroke="#f368e0" stroke-linecap="round" stroke-linejoin="round" stroke-width="2.75"/>
    </g>
    <g id="POLYLINE93" data-name="POLYLINE">
      <path d="M667.83,271.031c1.451.113,2.932-.062,4.316-.511" fill="none" stroke="#f368e0" stroke-linecap="round" stroke-linejoin="round" stroke-width="2.75"/>
    </g>
    <g id="POLYLINE94" data-name="POLYLINE">
      <path d="M657.817,262.495c.341,1.416.965,2.769,1.82,3.947" fill="none" stroke="#f368e0" stroke-linecap="round" stroke-linejoin="round" stroke-width="2.75"/>
    </g>
    <g id="POLYLINE95" data-name="POLYLINE">
      <path d="M269.686,259.872c.025-12.596-6.432-24.529-16.991-31.397-19.289-12.542-45.097-5.041-54.659,15.885-4.468,9.764-4.468,21.26,0,31.025,9.562,20.927,35.37,28.427,54.659,15.885,10.559-6.868,17.017-18.801,16.991-31.397Z" fill="none" stroke="#f368e0" stroke-linecap="round" stroke-linejoin="round" stroke-width="2.75"/>
    </g>
    <g id="POLYLINE96" data-name="POLYLINE">
      <path d="M284.205,259.872c.028-17.49-8.912-34.009-23.569-43.552-26.773-17.395-62.54-7-75.818,22.034-6.2,13.568-6.2,29.467,0,43.035,13.279,29.035,49.046,39.43,75.818,22.034,14.657-9.543,23.597-26.062,23.569-43.552Z" fill="none" stroke="#f368e0" stroke-linecap="round" stroke-linejoin="round" stroke-width="2.75"/>
    </g>
    <g id="POLYLINE97" data-name="POLYLINE">
      <line x1="198.292" y1="243.808" x2="220.89" y2="259.92" fill="none" stroke="#f368e0" stroke-linecap="round" stroke-linejoin="round" stroke-width="2.75"/>
    </g>
    <g id="POLYLINE98" data-name="POLYLINE">
      <line x1="206.431" y1="287.14" x2="228.738" y2="270.626" fill="none" stroke="#f368e0" stroke-linecap="round" stroke-linejoin="round" stroke-width="2.75"/>
    </g>
    <g id="POLYLINE99" data-name="POLYLINE">
      <line x1="250.157" y1="292.789" x2="241.345" y2="266.471" fill="none" stroke="#f368e0" stroke-linecap="round" stroke-linejoin="round" stroke-width="2.75"/>
    </g>
    <g id="POLYLINE100" data-name="POLYLINE">
      <line x1="269.041" y1="252.949" x2="241.288" y2="253.197" fill="none" stroke="#f368e0" stroke-linecap="round" stroke-linejoin="round" stroke-width="2.75"/>
    </g>
    <g id="POLYLINE101" data-name="POLYLINE">
      <line x1="236.987" y1="222.677" x2="228.647" y2="249.149" fill="none" stroke="#f368e0" stroke-linecap="round" stroke-linejoin="round" stroke-width="2.75"/>
    </g>
    <g id="POLYLINE102" data-name="POLYLINE">
      <path d="M239.392,259.872c.009-3.283-2.256-6.193-5.441-6.99-4.534-1.14-8.932,2.253-8.981,6.927-.032,4.728,4.396,8.205,8.981,7.053,3.185-.797,5.45-3.707,5.441-6.99Z" fill="none" stroke="#f368e0" stroke-linecap="round" stroke-linejoin="round" stroke-width="2.75"/>
    </g>
    <g id="POLYLINE103" data-name="POLYLINE">
      <path d="M229.617,266.612l-3.77,17.226c-.008.036-.019.079-.029.114-.044.15-.109.296-.191.429-.077.124-.172.24-.278.341-.019.018-.046.042-.066.059,0,0-10,8.573-10,8.573" fill="none" stroke="#f368e0" stroke-linecap="round" stroke-linejoin="round" stroke-width="2.75"/>
    </g>
    <g id="POLYLINE104" data-name="POLYLINE">
      <path d="M231.934,267.079l-3.844,24.501c-.009.058-.016.121-.019.179-.006.119,0,.242.019.36.044.277.157.544.325.768.258.346.65.588,1.075.663,1.302.129,2.657.133,3.964.092.962-.036,1.979-.119,2.935-.239.078-.01.159-.026.234-.046.375-.1.714-.331.943-.645.153-.208.259-.452.307-.706.022-.117.032-.238.029-.356-.001-.048-.004-.102-.01-.149,0,0-2.705-25.075-2.705-25.075" fill="none" stroke="#f368e0" stroke-linecap="round" stroke-linejoin="round" stroke-width="2.75"/>
    </g>
    <g id="POLYLINE105" data-name="POLYLINE">
      <path d="M237.798,264.395l15.218,8.909c.032.019.069.042.099.063.129.088.248.195.349.314.094.112.176.238.239.37.011.023.026.057.036.081,0,0,5.063,12.16,5.063,12.16" fill="none" stroke="#f368e0" stroke-linecap="round" stroke-linejoin="round" stroke-width="2.75"/>
    </g>
    <g id="POLYLINE106" data-name="POLYLINE">
      <path d="M238.959,262.335l22.114,11.227c.052.026.11.052.165.073.112.043.23.074.348.093.277.044.565.019.831-.072.409-.139.76-.437.963-.818.525-1.199.948-2.486,1.313-3.742.263-.926.498-1.919.679-2.865.015-.077.025-.159.029-.237.021-.388-.095-.781-.322-1.096-.15-.21-.349-.386-.576-.51-.104-.057-.216-.104-.33-.138-.046-.013-.098-.027-.145-.037,0,0-24.684-5.176-24.684-5.176" fill="none" stroke="#f368e0" stroke-linecap="round" stroke-linejoin="round" stroke-width="2.75"/>
    </g>
    <g id="POLYLINE107" data-name="POLYLINE">
      <path d="M238.218,255.928l13.175-11.72c.027-.024.061-.053.091-.075.124-.096.262-.175.407-.234.136-.055.28-.094.426-.113.026-.003.062-.007.088-.009,0,0,13.129-1.058,13.129-1.058" fill="none" stroke="#f368e0" stroke-linecap="round" stroke-linejoin="round" stroke-width="2.75"/>
    </g>
    <g id="POLYLINE108" data-name="POLYLINE">
      <path d="M236.618,254.188l17.511-17.562c.041-.042.084-.089.121-.134.075-.093.142-.196.196-.302.127-.25.193-.532.188-.812-.006-.432-.181-.858-.48-1.169-.978-.87-2.071-1.67-3.153-2.405-.8-.536-1.671-1.067-2.515-1.531-.069-.038-.143-.072-.216-.1-.362-.14-.772-.151-1.142-.033-.246.078-.475.213-.663.39-.086.081-.166.174-.233.271-.027.039-.056.085-.08.126,0,0-12.55,21.877-12.55,21.877" fill="none" stroke="#f368e0" stroke-linecap="round" stroke-linejoin="round" stroke-width="2.75"/>
    </g>
    <g id="POLYLINE109" data-name="POLYLINE">
      <path d="M230.296,252.913l-7.075-16.152c-.015-.034-.031-.075-.044-.109-.053-.147-.086-.303-.097-.459-.011-.146-.002-.296.024-.44.005-.025.012-.061.018-.086,0,0,3.051-12.814,3.051-12.814" fill="none" stroke="#f368e0" stroke-linecap="round" stroke-linejoin="round" stroke-width="2.75"/>
    </g>
    <g id="POLYLINE110" data-name="POLYLINE">
      <path d="M228.146,253.897l-11.292-22.081c-.027-.052-.058-.107-.09-.156-.065-.1-.142-.195-.227-.28-.198-.198-.446-.348-.714-.43-.412-.128-.872-.093-1.26.096-1.129.661-2.228,1.454-3.261,2.255-.757.595-1.531,1.26-2.234,1.918-.057.054-.113.114-.162.175-.245.301-.383.688-.384,1.076-.002.258.056.518.166.751.051.107.114.211.186.306.029.038.063.08.095.115,0,0,16.928,18.696,16.928,18.696" fill="none" stroke="#f368e0" stroke-linecap="round" stroke-linejoin="round" stroke-width="2.75"/>
    </g>
    <g id="POLYLINE111" data-name="POLYLINE">
      <path d="M224.98,259.516l-17.548,1.737c-.037.004-.081.006-.117.008-.156.005-.315-.012-.467-.049-.142-.035-.282-.089-.411-.159-.023-.012-.054-.031-.077-.044,0,0-11.244-6.862-11.244-6.862" fill="none" stroke="#f368e0" stroke-linecap="round" stroke-linejoin="round" stroke-width="2.75"/>
    </g>
    <g id="POLYLINE112" data-name="POLYLINE">
      <path d="M225.251,261.864l-24.49,3.915c-.058.009-.12.022-.176.038-.115.031-.23.075-.336.129-.25.127-.469.317-.63.547-.249.352-.358.8-.298,1.228.28,1.278.694,2.568,1.137,3.799.332.904.725,1.845,1.134,2.717.033.071.073.143.116.208.211.326.536.576.904.698.245.082.51.107.766.074.118-.015.236-.043.348-.082.045-.016.095-.035.139-.055,0,0,23.012-10.322,23.012-10.322" fill="none" stroke="#f368e0" stroke-linecap="round" stroke-linejoin="round" stroke-width="2.75"/>
    </g>
    <g id="POLYLINE113" data-name="POLYLINE">
      <path d="M226.325,250.335c-1.241.761-2.335,1.773-3.192,2.95" fill="none" stroke="#f368e0" stroke-linecap="round" stroke-linejoin="round" stroke-width="2.75"/>
    </g>
    <g id="POLYLINE114" data-name="POLYLINE">
      <path d="M239.442,251.355c-1.108-.945-2.408-1.673-3.792-2.124" fill="none" stroke="#f368e0" stroke-linecap="round" stroke-linejoin="round" stroke-width="2.75"/>
    </g>
    <g id="POLYLINE115" data-name="POLYLINE">
      <path d="M242.525,264.146c.558-1.349.849-2.814.848-4.273" fill="none" stroke="#f368e0" stroke-linecap="round" stroke-linejoin="round" stroke-width="2.75"/>
    </g>
    <g id="POLYLINE116" data-name="POLYLINE">
      <path d="M231.314,271.031c1.451.113,2.932-.062,4.316-.511" fill="none" stroke="#f368e0" stroke-linecap="round" stroke-linejoin="round" stroke-width="2.75"/>
    </g>
    <g id="POLYLINE117" data-name="POLYLINE">
      <path d="M221.301,262.495c.341,1.416.965,2.769,1.82,3.947" fill="none" stroke="#f368e0" stroke-linecap="round" stroke-linejoin="round" stroke-width="2.75"/>
    </g>
  </g>
  <g id="_x32_D_x24_AG-OUTLINE">
    <g id="POLYLINE118" data-name="POLYLINE">
      <path d="M182.101,273.956c6.06,21.609,25.435,36.947,47.853,37.891,22.422.976,43.031-12.647,50.919-33.658l11.005.472c-.002.498.16.996.458,1.396.304.412.746.719,1.239.859.208.059.422.089.638.09.607-.082,311.262-.012,311.804-.249.499-.134.951-.44,1.259-.853.293-.39.461-.876.468-1.364l12.382-.034c7.639,19.971,26.887,33.284,48.265,33.39,21.715.146,41.334-13.337,48.982-33.66l12.241-.034c.008.607.264,1.205.698,1.628.431.427,1.033.673,1.64.671.507,1.809,1.015,3.709,1.812,5.412.34.696.757,1.403,1.419,1.837.615.396,1.347.574,2.07.627,1.565.102,3.224-.079,4.786-.213,16.807-1.833,35.688-4.835,52.39-7.705,4.062-.081,10.066.042,14.045-.4.715-.093,1.44-.22,2.119-.467,1.568-.209,3.175-.453,4.7-.879.695-.202,1.398-.439,2.011-.832.219-.143.424-.311.594-.51.163-.189.291-.407.401-.63.15-.311.266-.653.252-1.002-.008-.185-.06-.371-.166-.523-.113-.164-.281-.287-.466-.358-.523-.185-1.129-.206-1.678-.261,1.152-13.225,2.07-28.09,2.242-41.34.007-2.426-.049-5.03-.242-7.443-.439-5.89-1.798-11.735-4.118-17.171.25-.104.477-.299.555-.566.078-.265.019-.547-.072-.801-.225-.593-.609-1.117-1.002-1.608-1.033-1.248-2.296-2.348-3.522-3.404-2.605-2.204-5.419-4.336-8.233-6.265-3.606-2.47-7.479-4.774-11.388-6.734-4.515-2.266-9.374-4.233-14.132-5.929-9.278-3.291-19.461-6.086-29.006-8.53-33.525-8.401-68.129-13.821-102.639-15.765-5.461-.313-11.483-.304-16.952-.099-5.091.133-15.31-.181-20.267-.259-10.055-6.709-22.109-13.752-32.666-19.734-21.904-12.274-46.215-24.531-69.02-35.04,0-.002.003-.007.003-.008v-.004s.003-.004.003-.004v-.004s.003-.004.003-.004v-.004s.002-.004.002-.004v-.004s.002-.004.002-.004v-.004s.002-.004.002-.004v-.004s.001-.004.001-.004v-.004s0-.004,0-.004v-.004s0-.004,0-.004v-.004s0-.004,0-.004v-.005s0-.005,0-.005v-.005s0-.005,0-.005v-.005s0-.005,0-.005v-.005s-.001-.005-.001-.005v-.005s-.001-.005-.001-.005v-.005c-.023-.106-.095-.192-.169-.267-.233-.225-.527-.388-.807-.547-1.564-.826-3.289-1.498-4.936-2.142-3.379-1.286-6.971-2.395-10.462-3.343-11.494-3.053-23.697-5.033-35.463-6.746-8.228-1.165-17.474-2.214-25.765-2.84-13.444-1.011-28.069-1.288-41.558-1.237-17.687.096-36.818.806-54.459,2.142-14.119,1.083-30.266,2.908-44.312,4.802-1.413-1.208-3.203-1.878-4.982-2.341-2.109-.521-4.304-.807-6.472-.91-.761-.019-1.543-.011-2.281.197-.253.073-.512.169-.7.36-.216.217-.328.514-.407.804-.103.392-.152.802-.188,1.205-.079.921-.079,1.954-.077,2.881-4.163.667-9.708,1.521-13.791,2.374-1.122.241-2.347.508-3.437.853-.434.14-.874.295-1.277.512-.197.11-.394.233-.547.4-.095.106-.151.239-.121.383-13.513,2.563-27.655,6.765-40.798,10.895-11.022,3.539-24.696,8.126-35.517,12.153-12.747,4.728-26.874,10.491-39.38,15.846-1.772-.192-3.621.129-5.374.39-4.835.819-10.57,1.696-15.422,2.16-12.971,1.308-28.376,2.062-41.44,2.658-1.083-.176-2.207-.304-3.303-.365-.703-.034-1.425-.043-2.124.046-.541.073-1.1.199-1.549.524-.337.244-.585.611-.672,1.019-.103.473-.021.965.111,1.423.424,1.362,1.236,2.656,1.991,3.859.449.68.944,1.442,1.461,2.071.143.169.298.331.47.47-1.525,2.508-3.476,5.649-4.822,8.225-.327.633-.669,1.319-.934,1.979-.196.5-.379,1.021-.42,1.56-.046.599.172,1.182.363,1.74.346.946.831,1.885,1.306,2.774.933,1.731,2.192,3.812,3.213,5.503.195,1.946.518,4.703.807,6.644.098.598.215,1.219.386,1.799.153.516.353,1.029.663,1.472-.15,4.318-.379,8.784-1.218,13.025-.676,3.488-1.744,6.932-3.186,10.179-1.194,1.607-2.53,3.222-3.917,4.666-1.589,1.68-4.143,3.878-5.891,5.433-1.229,1.125-2.495,2.345-3.097,3.934-.402,1.084-.508,2.259-.521,3.408.001,1.378.129,2.77.433,4.115.251,1.015.545,1.919.689,2.981.084.551.148,1.125.185,1.681.027.39.035.882.087,1.269.06.48.223.967.596,1.294.029,2.062.154,4.367.347,6.421-.469.012-.967,0-1.417.15-.233.078-.45.221-.582.431-.208.329-.233.737-.208,1.116.057.712.291,1.403.554,2.063.606,1.473,1.46,2.917,2.275,4.285,2.363,3.831,4.961,7.836,7.695,11.409.689.873,1.418,1.776,2.251,2.516.593.529,1.283.962,2.048,1.191.391.123.803.203,1.206.271,1.074.176,2.306.313,3.39.421.15,1.043.308,2.39.525,3.413.044.196.094.397.165.585.073.195.178.384.34.519.138.113.296.203.457.276.14.059.291.093.44.12.878.142,1.839.147,2.728.172,10.98.086,32.08-1.021,43.273-1.432.081.007,42.385,4.251,42.46,4.254.161.01.327.003.486-.02.254-.037.503-.117.732-.235.667-.338,1.145-1.013,1.245-1.753l14.93.64Z" fill="none" stroke="#f368e0" stroke-linecap="round" stroke-linejoin="round" stroke-width="3.5"/>
    </g>
  </g>
  <metadata>
    <sfw xmlns="http://ns.adobe.com/SaveForWeb/1.0/">
      <slices/>
      <sliceSourceBounds x="-3314.24" y="1330" width="5676.24" height="4693.85" bottomLeftOrigin="true"/>
    </sfw>
  </metadata>
</svg>